<svg width="685" height="618" viewBox="0 0 685 618" fill="none" xmlns="http://www.w3.org/2000/svg">
<g filter="url(#filter0_dd_20_1621)">
<path d="M346.379 146.127C320.117 134.772 291.802 128.895 263.177 128.857C162.209 128.857 82.3475 202.08 71.3575 298.168L83.8814 292.147L274.167 332.146L346.379 146.127Z" fill="#FFD953"/>
<path opacity="0.4" d="M346.379 146.127C320.117 134.772 291.802 128.895 263.177 128.857C162.209 128.857 82.3475 202.08 71.3575 298.168L83.8814 292.147L274.167 332.146L346.379 146.127Z" fill="white"/>
<path d="M358.883 140.106C332.61 128.742 304.281 122.865 275.643 122.836C174.675 122.836 94.8132 196.059 83.8232 292.147L286.691 326.125L358.883 140.106Z" fill="#FFD953"/>
<path opacity="0.6" d="M358.883 140.106C332.61 128.742 304.281 122.865 275.643 122.836C174.675 122.836 94.8132 196.059 83.8232 292.147L286.691 326.125L358.883 140.106Z" fill="white"/>
<path d="M385.504 131.955L313.273 317.974L492.705 424.458L505.229 418.437C505.229 418.437 519.092 353.83 517.151 317.896C512.782 237.743 397.989 125.856 397.989 125.856L385.504 131.955Z" fill="#FFD953"/>
<path opacity="0.1" d="M385.504 131.955L313.273 317.974L492.705 424.458L505.229 418.437C505.229 418.437 519.092 353.83 517.151 317.896C512.782 237.743 397.989 125.856 397.989 125.856L385.504 131.955Z" fill="white"/>
<path d="M397.989 125.895L325.777 311.953L505.229 418.437C523.393 385.993 531.868 349.044 529.655 311.953C525.15 228.875 471.288 157.473 397.989 125.895Z" fill="#FFD953"/>
<path opacity="0.2" d="M397.989 125.895L325.777 311.953L505.229 418.437C523.393 385.993 531.868 349.044 529.655 311.953C525.15 228.875 471.288 157.473 397.989 125.895Z" fill="white"/>
<g style="mix-blend-mode:color-dodge" opacity="0.4">
<path d="M500.569 402.755C500.486 402.78 500.398 402.78 500.316 402.755L339.952 307.519C339.853 307.459 339.779 307.365 339.743 307.255C339.708 307.145 339.713 307.026 339.758 306.919L403.833 141.655C403.856 141.589 403.893 141.53 403.941 141.48C403.989 141.43 404.047 141.391 404.111 141.365C404.176 141.339 404.245 141.328 404.314 141.331C404.384 141.334 404.451 141.352 404.513 141.384C436.928 157.695 464.54 182.118 484.647 212.264C504.699 242.125 516.371 276.792 518.452 312.669C520.232 343.611 514.225 374.506 500.976 402.542C500.948 402.607 500.905 402.665 500.851 402.712C500.798 402.759 500.734 402.793 500.666 402.813L500.569 402.755ZM340.845 306.783L500.394 401.535C513.419 373.764 519.311 343.199 517.539 312.592C513.656 240.763 470.375 175.575 404.61 142.371L340.845 306.783Z" fill="#FAFAFA"/>
</g>
<g style="mix-blend-mode:color-dodge" opacity="0.4">
<path d="M279.254 312.611L96.8713 282.079C96.7477 282.054 96.6374 281.985 96.5606 281.885C96.5141 281.767 96.5141 281.636 96.5606 281.517C103.682 239.807 125.418 201.969 157.899 174.742C191.072 147.536 232.749 132.768 275.701 133C299.047 133.001 322.208 137.13 344.107 145.198C344.17 145.214 344.227 145.245 344.275 145.289C344.322 145.333 344.358 145.388 344.379 145.45C344.429 145.574 344.429 145.712 344.379 145.837L279.759 312.34C279.715 312.433 279.642 312.509 279.551 312.558C279.46 312.606 279.357 312.625 279.254 312.611ZM97.5314 281.208L278.944 311.585L343.233 145.934C321.575 138.02 298.69 133.97 275.623 133.969C186.014 133.969 112.832 194.491 97.5314 281.208Z" fill="#FAFAFA"/>
</g>
<path d="M274.167 332.146L83.8814 292.146L71.2993 298.206C70.0115 309.485 69.6802 320.851 70.309 332.185C76.4059 444.478 172.636 535.473 285.235 535.473C358.631 535.473 420.862 496.752 453.599 438.669L274.167 332.146Z" fill="#FFD953"/>
<path opacity="0.2" d="M274.167 332.146L83.8814 292.146L71.2993 298.206C70.0115 309.485 69.6802 320.851 70.309 332.185C76.4059 444.478 172.636 535.473 285.235 535.473C358.631 535.473 420.862 496.752 453.599 438.669L274.167 332.146Z" fill="black"/>
<path d="M286.691 326.125L83.8232 292.146C82.5385 303.425 82.2008 314.79 82.8135 326.125C88.9299 438.418 185.141 529.414 297.739 529.414C371.155 529.414 433.386 490.692 466.123 432.609L286.691 326.125Z" fill="#FFD953"/>
<path opacity="0.1" d="M286.691 326.125L83.8232 292.146C82.5385 303.425 82.2008 314.79 82.8135 326.125C88.9299 438.418 185.141 529.414 297.739 529.414C371.155 529.414 433.386 490.692 466.123 432.609L286.691 326.125Z" fill="black"/>
<g style="mix-blend-mode:color-dodge" opacity="0.4">
<path d="M297.739 518.281C191.16 518.281 99.6868 431.796 93.8617 325.525C93.5219 318.914 93.5219 312.29 93.8617 305.68C93.8592 305.612 93.874 305.544 93.9045 305.483C93.935 305.422 93.9804 305.37 94.0365 305.331C94.0874 305.283 94.1491 305.247 94.2166 305.227C94.2841 305.207 94.3555 305.203 94.4248 305.215L282.633 336.735H282.788L450.279 436.211C450.337 436.243 450.388 436.288 450.428 436.341C450.468 436.394 450.496 436.455 450.512 436.52C450.556 436.639 450.556 436.77 450.512 436.888C434.223 461.995 411.826 482.583 385.407 496.733C358.399 510.975 328.292 518.375 297.739 518.281ZM94.852 306.261C94.5607 312.65 94.5801 319.097 94.852 325.467C100.677 431.235 191.587 517.313 297.662 517.313C360.67 517.313 415.93 487.981 449.327 436.849L282.342 337.683L94.852 306.261Z" fill="#FAFAFA"/>
</g>
</g>
<g filter="url(#filter1_dd_20_1621)">
<rect x="326" y="308.424" width="256" height="83.0705" rx="8" fill="white"/>
<rect x="326.5" y="308.924" width="255" height="82.0705" rx="7.5" stroke="#D0D0D0"/>
</g>
<g filter="url(#filter2_d_20_1621)">
<path d="M383.491 343.045V335.413H396.787V370.453H388.243V343.045H383.491ZM407.058 370.837C405.618 370.837 404.434 370.421 403.506 369.589C402.61 368.725 402.162 367.669 402.162 366.421C402.162 365.141 402.61 364.069 403.506 363.205C404.434 362.341 405.618 361.909 407.058 361.909C408.466 361.909 409.618 362.341 410.514 363.205C411.442 364.069 411.906 365.141 411.906 366.421C411.906 367.669 411.442 368.725 410.514 369.589C409.618 370.421 408.466 370.837 407.058 370.837ZM421.709 351.637C418.701 350.037 417.197 347.525 417.197 344.101C417.197 342.373 417.645 340.805 418.541 339.397C419.437 337.957 420.797 336.821 422.621 335.989C424.445 335.125 426.685 334.693 429.341 334.693C431.997 334.693 434.221 335.125 436.013 335.989C437.837 336.821 439.197 337.957 440.093 339.397C440.989 340.805 441.437 342.373 441.437 344.101C441.437 345.829 441.021 347.333 440.189 348.613C439.389 349.893 438.301 350.901 436.925 351.637C438.653 352.469 439.981 353.621 440.909 355.093C441.837 356.533 442.301 358.229 442.301 360.181C442.301 362.453 441.725 364.421 440.573 366.085C439.421 367.717 437.853 368.965 435.869 369.829C433.917 370.693 431.741 371.125 429.341 371.125C426.941 371.125 424.749 370.693 422.765 369.829C420.813 368.965 419.261 367.717 418.109 366.085C416.957 364.421 416.381 362.453 416.381 360.181C416.381 358.197 416.845 356.485 417.773 355.045C418.701 353.573 420.013 352.437 421.709 351.637ZM433.469 345.349C433.469 344.037 433.085 343.029 432.317 342.325C431.581 341.589 430.589 341.221 429.341 341.221C428.093 341.221 427.085 341.589 426.317 342.325C425.581 343.061 425.213 344.085 425.213 345.397C425.213 346.645 425.597 347.637 426.365 348.373C427.133 349.077 428.125 349.429 429.341 349.429C430.557 349.429 431.549 349.061 432.317 348.325C433.085 347.589 433.469 346.597 433.469 345.349ZM429.341 355.189C427.837 355.189 426.621 355.605 425.693 356.437C424.765 357.237 424.301 358.357 424.301 359.797C424.301 361.141 424.749 362.245 425.645 363.109C426.573 363.973 427.805 364.405 429.341 364.405C430.877 364.405 432.077 363.973 432.941 363.109C433.837 362.245 434.285 361.141 434.285 359.797C434.285 358.389 433.821 357.269 432.893 356.437C431.997 355.605 430.813 355.189 429.341 355.189ZM455.906 360.181C456.386 362.709 457.858 363.973 460.322 363.973C462.018 363.973 463.218 363.221 463.922 361.717C464.626 360.213 464.978 357.765 464.978 354.373C464.274 355.365 463.314 356.133 462.098 356.677C460.882 357.221 459.522 357.493 458.018 357.493C455.97 357.493 454.146 357.077 452.546 356.245C450.946 355.381 449.682 354.117 448.754 352.453C447.858 350.757 447.41 348.709 447.41 346.309C447.41 343.941 447.89 341.877 448.85 340.117C449.842 338.357 451.234 336.997 453.026 336.037C454.85 335.077 456.994 334.597 459.458 334.597C464.194 334.597 467.506 336.069 469.394 339.013C471.282 341.957 472.226 346.293 472.226 352.021C472.226 356.181 471.842 359.621 471.074 362.341C470.338 365.029 469.074 367.077 467.282 368.485C465.522 369.893 463.106 370.597 460.034 370.597C457.602 370.597 455.522 370.117 453.794 369.157C452.098 368.197 450.786 366.933 449.858 365.365C448.962 363.797 448.45 362.069 448.322 360.181H455.906ZM459.89 351.013C461.234 351.013 462.306 350.613 463.106 349.813C463.906 348.981 464.306 347.861 464.306 346.453C464.306 344.917 463.89 343.733 463.058 342.901C462.226 342.069 461.106 341.653 459.698 341.653C458.29 341.653 457.17 342.085 456.338 342.949C455.538 343.781 455.138 344.933 455.138 346.405C455.138 347.781 455.538 348.901 456.338 349.765C457.17 350.597 458.354 351.013 459.89 351.013ZM501.277 342.565H486.301V349.189C486.941 348.485 487.837 347.909 488.989 347.461C490.141 347.013 491.389 346.789 492.733 346.789C495.133 346.789 497.117 347.333 498.685 348.421C500.285 349.509 501.453 350.917 502.189 352.645C502.925 354.373 503.293 356.245 503.293 358.261C503.293 362.005 502.237 364.981 500.125 367.189C498.013 369.365 495.037 370.453 491.197 370.453C488.637 370.453 486.413 370.021 484.525 369.157C482.637 368.261 481.181 367.029 480.157 365.461C479.133 363.893 478.573 362.085 478.477 360.037H486.493C486.685 361.029 487.149 361.861 487.885 362.533C488.621 363.173 489.629 363.493 490.909 363.493C492.413 363.493 493.533 363.013 494.269 362.053C495.005 361.093 495.373 359.813 495.373 358.213C495.373 356.645 494.989 355.445 494.221 354.613C493.453 353.781 492.333 353.365 490.861 353.365C489.773 353.365 488.877 353.637 488.173 354.181C487.469 354.693 487.005 355.381 486.781 356.245H478.861V335.365H501.277V342.565ZM532.976 357.349H524.624V365.893H516.848V357.349H508.496V350.005H516.848V341.413H524.624V350.005H532.976V357.349Z" fill="#FFD74A"/>
</g>
<g filter="url(#filter3_d_20_1621)">
<path d="M167.065 96.7073L158.343 86.3205C147.227 85.4834 136.837 80.6549 129.215 72.7842C121.593 64.9134 117.29 54.5698 117.153 43.7865C117.016 33.0033 121.054 22.5603 128.473 14.5105C135.893 6.46074 146.157 1.38636 157.248 0.284861C168.34 -0.816642 179.456 2.1344 188.412 8.55793C197.368 14.9814 203.515 24.4128 205.647 34.998C207.778 45.5833 205.738 56.5568 199.929 65.7614C194.12 74.966 184.961 81.736 174.253 84.7405L167.065 96.7073Z" fill="white"/>
<path d="M167.065 96.7076C167.065 96.7076 167.235 96.4602 167.534 95.9656L168.954 93.6987C170.19 91.6653 171.994 88.6839 174.366 84.7957L174.466 84.6308H174.238V84.8506C181.375 82.8668 187.888 79.1929 193.188 74.1616C194.84 72.6016 196.36 70.9153 197.733 69.1193C199.192 67.1771 200.494 65.1284 201.625 62.9916C204.122 58.3202 205.706 53.2433 206.299 48.0159C207.378 38.6498 205.261 29.1992 200.27 21.1053C195.28 13.0113 187.689 6.71799 178.656 3.185C171.965 0.53083 164.7 -0.488414 157.505 0.217336C156.582 0.31351 155.672 0.395975 154.763 0.505889L152.064 1.04169L150.729 1.31649L149.422 1.70119L146.809 2.47058C145.956 2.7591 145.147 3.13006 144.309 3.4598C143.464 3.76061 142.643 4.11872 141.851 4.53146C140.251 5.28656 138.709 6.14969 137.235 7.11443C131.428 10.8052 126.569 15.73 123.03 21.5131C118.501 29.0811 116.444 37.7965 117.129 46.5155C117.813 55.2345 121.207 63.5496 126.865 70.3695C128.43 72.2417 130.139 73.9962 131.979 75.6179C133.739 77.0704 135.584 78.4237 137.504 79.671C143.731 83.548 150.859 85.8619 158.244 86.4032L164.849 94.1108L166.539 96.0756L167.093 96.7213C167.093 96.7213 166.909 96.474 166.525 96.0206L164.863 94.0009L158.343 86.252C151.006 85.6666 143.934 83.3298 137.76 79.4512C135.861 78.2046 134.035 76.856 132.291 75.4118C130.479 73.7949 128.793 72.0498 127.248 70.1909C121.682 63.4212 118.352 55.1869 117.694 46.5607C117.035 37.9345 119.077 29.3164 123.555 21.8291C127.038 16.1236 131.824 11.2642 137.547 7.62277C139.006 6.66503 140.534 5.81093 142.121 5.06726C142.899 4.65912 143.706 4.30559 144.536 4.00936C145.374 3.67962 146.184 3.32241 147.022 3.03389L149.593 2.2645L150.885 1.89352L152.206 1.61876L154.877 1.09666C155.772 0.97301 156.681 0.904313 157.59 0.794399C164.699 0.0989668 171.876 1.10878 178.486 3.73456C184.808 6.19591 190.453 10.0431 194.977 14.9732C199.06 19.4583 202.135 24.7152 204.006 30.4106C205.876 36.106 206.502 42.1153 205.844 48.0571C205.271 53.2367 203.721 58.2707 201.27 62.9092C200.146 65.0251 198.864 67.0593 197.435 68.9956C196.073 70.7836 194.567 72.465 192.932 74.0242C187.691 79.0274 181.248 82.6953 174.181 84.6995L173.372 84.9331H174.238L174.139 84.7682L168.883 93.6712L167.534 95.9931L167.065 96.7076Z" fill="#263238"/>
<path d="M179.337 32.5538L173.045 26.7722L146.238 54.0655L152.531 59.8472L179.337 32.5538Z" fill="#FF725E"/>
<path d="M151.647 27.2704L145.669 33.3567L173.888 59.2843L179.865 53.1981L151.647 27.2704Z" fill="#FF725E"/>
</g>
<g filter="url(#filter4_d_20_1621)">
<path d="M651.334 312.41L641.22 303.055C629.969 303.524 618.943 299.906 610.31 292.911C601.677 285.917 596.062 276.052 594.567 265.256C593.072 254.46 595.806 243.513 602.232 234.568C608.657 225.623 618.31 219.326 629.292 216.915C640.275 214.503 651.792 216.152 661.581 221.538C671.37 226.923 678.723 235.655 682.194 246.017C685.664 256.379 685.002 267.623 680.337 277.537C675.673 287.451 667.343 295.319 656.985 299.594L651.334 312.41Z" fill="white"/>
<path d="M651.334 312.41L651.707 311.608C651.956 311.047 652.329 310.272 652.812 309.176L657.109 299.594L657.192 299.42H656.999V299.634C663.918 296.812 670.001 292.366 674.698 286.698C676.155 284.934 677.467 283.062 678.622 281.099C679.835 278.977 680.883 276.77 681.758 274.498C685.805 263.913 685.443 252.222 680.749 241.891C678.122 236.078 674.23 230.881 669.337 226.656C663.981 222.092 657.588 218.813 650.677 217.086C643.766 215.358 636.531 215.231 629.559 216.714C628.661 216.928 627.749 217.115 626.796 217.342L624.157 218.197L622.844 218.625L621.587 219.159L619.072 220.242C618.243 220.629 617.47 221.097 616.668 221.578C615.87 221.982 615.095 222.428 614.347 222.914C612.844 223.874 611.405 224.923 610.036 226.055C604.676 230.44 600.423 235.953 597.602 242.171C594.031 250.305 593.088 259.294 594.895 267.956C596.703 276.618 601.176 284.549 607.729 290.707C609.535 292.401 611.47 293.96 613.518 295.371C615.471 296.623 617.496 297.765 619.584 298.792C626.316 301.951 633.759 303.43 641.234 303.095H641.151L648.75 310.058L650.698 311.835L651.348 312.41L650.685 311.768L648.764 309.951L641.317 302.935C633.884 303.22 626.496 301.709 619.819 298.538C617.751 297.52 615.748 296.382 613.822 295.131C611.797 293.727 609.885 292.177 608.102 290.494C601.657 284.358 597.273 276.485 595.523 267.903C593.773 259.321 594.738 250.428 598.292 242.385C601.054 236.251 605.227 230.807 610.492 226.469C611.839 225.346 613.26 224.31 614.748 223.369C615.488 222.878 616.258 222.431 617.055 222.032C617.843 221.618 618.616 221.15 619.418 220.763L621.905 219.694L623.148 219.159L624.447 218.745L627.058 217.903C627.943 217.676 628.841 217.489 629.739 217.275C636.628 215.807 643.778 215.931 650.608 217.638C657.438 219.344 663.755 222.585 669.047 227.097C673.708 231.109 677.457 236.014 680.056 241.5C682.656 246.986 684.049 252.935 684.148 258.969C684.211 264.234 683.275 269.466 681.385 274.404C680.531 276.663 679.501 278.857 678.304 280.965C677.163 282.919 675.865 284.782 674.421 286.538C669.79 292.18 663.785 296.625 656.943 299.474L656.17 299.795L657.013 299.688L656.888 299.541C655.078 303.71 653.697 306.917 652.743 309.096C652.273 310.178 651.928 311.007 651.679 311.581L651.334 312.41Z" fill="#263238"/>
<path d="M636.163 262.978L642.367 256.844C642.596 256.623 642.752 256.341 642.814 256.034C642.875 255.726 642.84 255.408 642.712 255.12L639.673 248.024C639.604 248.158 639.507 248.278 639.438 248.412C638.553 246.912 637.336 245.621 635.873 244.63C634.514 243.721 632.978 243.088 631.358 242.769C629.739 242.45 628.069 242.451 626.45 242.773C621.421 243.802 617.276 247.931 615.397 252.127C615.15 252.725 614.956 253.342 614.817 253.971C613.881 258.321 614.597 262.852 616.834 266.733C619.151 270.205 622.292 273.091 625.994 275.152C630.139 277.625 635.252 280.498 637.96 282.061C638.18 282.187 638.428 282.261 638.684 282.278C638.94 282.295 639.196 282.254 639.432 282.158C639.668 282.061 639.878 281.913 640.045 281.725C640.211 281.536 640.33 281.313 640.391 281.072L642.657 272.399C642.727 272.127 642.721 271.842 642.641 271.572C642.561 271.303 642.41 271.058 642.201 270.863L636.177 265.183C635.877 264.89 635.708 264.496 635.706 264.083C635.703 263.671 635.867 263.275 636.163 262.978Z" fill="#FF725E"/>
<path d="M666.187 251.806C664.404 247.476 660.301 243.24 655.244 242.131C653.63 241.792 651.961 241.77 650.338 242.066C648.715 242.362 647.169 242.97 645.794 243.855C644.303 244.846 643.061 246.147 642.16 247.664L645.794 255.187C645.915 255.439 645.952 255.721 645.9 255.994C645.848 256.267 645.709 256.517 645.503 256.711L638.719 263.272C638.532 263.463 638.427 263.717 638.427 263.98C638.427 264.244 638.532 264.497 638.719 264.689L645.172 270.689C645.34 270.847 645.461 271.045 645.522 271.264C645.582 271.483 645.581 271.714 645.517 271.932L642.312 282.823C642.312 282.823 649.054 278.012 655.106 274.538C658.842 272.534 662.026 269.693 664.391 266.252C666.711 262.367 667.492 257.798 666.587 253.396C666.494 252.858 666.36 252.326 666.187 251.806Z" fill="#FF725E"/>
</g>
<g filter="url(#filter5_d_20_1621)">
<path d="M7.53267 606.967L10.4369 595.33C5.03912 587.235 2.96725 577.48 4.62858 567.982C6.28991 558.485 11.5643 549.932 19.4148 544.005C27.2653 538.078 37.1241 535.205 47.0532 535.952C56.9823 536.699 66.2633 541.012 73.0719 548.041C79.8805 555.071 83.7241 564.31 83.8471 573.942C83.9701 583.574 80.3636 592.902 73.7366 600.092C67.1096 607.282 57.9415 611.815 48.0346 612.799C38.1276 613.783 28.1984 611.147 20.1989 605.409L7.53267 606.967Z" fill="white"/>
<path d="M7.53268 606.967L8.33805 606.897L10.7786 606.625L20.2478 605.527H20.4186L20.3088 605.386L20.1745 605.527C25.4753 609.369 31.6823 611.871 38.2344 612.81C40.254 613.099 42.2941 613.233 44.3357 613.211C46.5495 613.157 48.7561 612.944 50.9373 612.574C56.3926 611.643 61.5875 609.622 66.1905 606.641C70.7935 603.66 74.7037 599.784 77.6716 595.26C80.6395 590.736 82.6001 585.663 83.4281 580.365C84.2561 575.067 83.9336 569.661 82.4809 564.49C80.8294 558.452 77.6556 552.905 73.2436 548.344C72.6701 547.766 72.1209 547.164 71.5474 546.609L69.6926 545.051L68.7774 544.273L67.789 543.588L65.8122 542.207C65.1411 541.782 64.4211 541.416 63.7378 541.027C63.0553 540.62 62.3506 540.25 61.6267 539.917C60.1991 539.233 58.7278 538.638 57.2216 538.135C51.381 536.154 45.15 535.488 39.0031 536.188C31.0017 537.165 23.4918 540.456 17.4564 545.631C11.421 550.805 7.14133 557.621 5.17759 565.187C4.64481 567.272 4.28169 569.396 4.09156 571.536C3.96948 573.529 3.96948 575.527 4.09156 577.52C4.6107 583.889 6.76669 590.031 10.3637 595.389V595.307C9.43629 599.107 8.74075 602.022 8.25264 604.017C8.02079 604.985 7.84995 605.728 7.72792 606.236C7.6059 606.743 7.55709 606.967 7.55709 606.967L7.76453 606.2L8.35027 603.97C8.85057 601.999 9.57052 599.107 10.5589 595.354C7.02709 589.995 4.93026 583.87 4.45764 577.532C4.34322 575.566 4.34322 573.596 4.45764 571.631C4.63245 569.461 4.97508 567.307 5.48265 565.187C7.45257 557.706 11.7044 550.973 17.685 545.862C23.6655 540.751 31.098 537.5 39.0153 536.53C45.094 535.842 51.2549 536.508 57.0264 538.477C58.5102 538.977 59.9609 539.565 61.3705 540.236C62.0851 540.567 62.7816 540.933 63.4571 541.334C64.1404 541.735 64.8482 542.089 65.5071 542.514L67.4595 543.871L68.4358 544.556L69.3509 545.323L71.1813 546.869C71.7427 547.424 72.2918 548.049 72.8531 548.569C77.0766 552.997 80.1615 558.326 81.8576 564.123C83.5537 569.92 83.8132 576.022 82.6152 581.934C81.5273 587.16 79.3301 592.11 76.1627 596.471C72.9953 600.833 68.9265 604.512 64.2137 607.274C60.0879 609.685 55.5373 611.337 50.7908 612.149C48.6305 612.523 46.4442 612.74 44.2503 612.798C35.62 612.901 27.1912 610.273 20.2478 605.315L19.6377 604.89L20.1013 605.457L20.1745 605.303L10.7908 606.483L8.35027 606.802L7.53268 606.967Z" fill="#263238"/>
<path d="M37.6365 573.283C37.6365 574.119 37.3803 574.936 36.9002 575.63C36.4202 576.325 35.7379 576.867 34.9397 577.187C34.1414 577.506 33.2631 577.59 32.4157 577.427C31.5683 577.264 30.7899 576.862 30.1789 576.271C29.568 575.68 29.1519 574.927 28.9834 574.107C28.8148 573.288 28.9013 572.438 29.2319 571.666C29.5626 570.894 30.1225 570.234 30.8409 569.77C31.5593 569.305 32.4039 569.058 33.2679 569.058C33.8416 569.058 34.4097 569.167 34.9397 569.379C35.4697 569.592 35.9513 569.903 36.3569 570.295C36.7626 570.688 37.0844 571.153 37.3039 571.666C37.5235 572.179 37.6365 572.728 37.6365 573.283Z" fill="#EBC232"/>
<path d="M59.7231 573.283C59.7231 574.119 59.4669 574.936 58.9869 575.63C58.5069 576.325 57.8246 576.867 57.0264 577.187C56.2281 577.506 55.3497 577.59 54.5023 577.427C53.6549 577.264 52.8765 576.862 52.2656 576.271C51.6546 575.68 51.2386 574.927 51.07 574.107C50.9015 573.288 50.988 572.438 51.3186 571.666C51.6493 570.894 52.2092 570.234 52.9276 569.77C53.646 569.305 54.4906 569.058 55.3546 569.058C56.5132 569.058 57.6244 569.503 58.4436 570.295C59.2629 571.088 59.7231 572.162 59.7231 573.283Z" fill="#EBC232"/>
<path d="M55.3545 587.198C55.0861 587.316 54.3417 585.935 52.5724 584.259C51.5464 583.314 50.383 582.519 49.119 581.899C47.6117 581.145 45.9348 580.764 44.238 580.789C42.517 580.812 40.8203 581.186 39.2593 581.887C37.9745 582.509 36.7872 583.304 35.7328 584.247C33.878 585.876 32.8896 587.115 32.6455 586.95C32.4015 586.785 33.036 585.333 34.7688 583.339C35.7969 582.158 37.037 581.166 38.4296 580.412C40.1898 579.495 42.1536 579.005 44.1526 578.984C46.1781 578.943 48.1757 579.446 49.9244 580.435C51.3316 581.214 52.5737 582.243 53.5852 583.469C55.2447 585.475 55.5132 587.127 55.3545 587.198Z" fill="#EBC232"/>
<path d="M32.1453 562.543C32.3771 562.625 32.3893 563.369 31.9744 564.478C31.3789 565.909 30.4486 567.186 29.2566 568.21C28.0645 569.234 26.6432 569.976 25.1044 570.379C23.8841 570.651 23.152 570.545 23.1032 570.309C22.9933 569.789 25.5437 568.94 27.9842 566.839C30.4247 564.738 31.6206 562.377 32.1453 562.543Z" fill="#EBC232"/>
<path d="M64.7872 567.807C64.7872 568.043 64.055 568.385 62.7127 568.444C60.9688 568.461 59.2487 568.052 57.7125 567.253C56.1763 566.455 54.874 565.293 53.9269 563.876C53.2313 562.767 53.1093 561.953 53.329 561.846C53.8171 561.599 55.4766 564.053 58.6127 565.635C61.7487 567.217 64.7262 567.276 64.7872 567.807Z" fill="#EBC232"/>
</g>
<defs>
<filter id="filter0_dd_20_1621" x="34" y="114.836" width="508" height="460.637" filterUnits="userSpaceOnUse" color-interpolation-filters="sRGB">
<feFlood flood-opacity="0" result="BackgroundImageFix"/>
<feColorMatrix in="SourceAlpha" type="matrix" values="0 0 0 0 0 0 0 0 0 0 0 0 0 0 0 0 0 0 127 0" result="hardAlpha"/>
<feOffset dx="-8" dy="4"/>
<feComposite in2="hardAlpha" operator="out"/>
<feColorMatrix type="matrix" values="0 0 0 0 0.721667 0 0 0 0 0.442382 0 0 0 0 0.0234541 0 0 0 0.3 0"/>
<feBlend mode="normal" in2="BackgroundImageFix" result="effect1_dropShadow_20_1621"/>
<feColorMatrix in="SourceAlpha" type="matrix" values="0 0 0 0 0 0 0 0 0 0 0 0 0 0 0 0 0 0 127 0" result="hardAlpha"/>
<feOffset dx="-12" dy="16"/>
<feGaussianBlur stdDeviation="12"/>
<feComposite in2="hardAlpha" operator="out"/>
<feColorMatrix type="matrix" values="0 0 0 0 0 0 0 0 0 0 0 0 0 0 0 0 0 0 0.1 0"/>
<feBlend mode="normal" in2="effect1_dropShadow_20_1621" result="effect2_dropShadow_20_1621"/>
<feBlend mode="normal" in="SourceGraphic" in2="effect2_dropShadow_20_1621" result="shape"/>
</filter>
<filter id="filter1_dd_20_1621" x="302" y="284.424" width="304" height="131.07" filterUnits="userSpaceOnUse" color-interpolation-filters="sRGB">
<feFlood flood-opacity="0" result="BackgroundImageFix"/>
<feColorMatrix in="SourceAlpha" type="matrix" values="0 0 0 0 0 0 0 0 0 0 0 0 0 0 0 0 0 0 127 0" result="hardAlpha"/>
<feOffset/>
<feGaussianBlur stdDeviation="12"/>
<feComposite in2="hardAlpha" operator="out"/>
<feColorMatrix type="matrix" values="0 0 0 0 0.909167 0 0 0 0 0.803582 0 0 0 0 0.249263 0 0 0 0.3 0"/>
<feBlend mode="normal" in2="BackgroundImageFix" result="effect1_dropShadow_20_1621"/>
<feColorMatrix in="SourceAlpha" type="matrix" values="0 0 0 0 0 0 0 0 0 0 0 0 0 0 0 0 0 0 127 0" result="hardAlpha"/>
<feOffset dx="-8" dy="8"/>
<feComposite in2="hardAlpha" operator="out"/>
<feColorMatrix type="matrix" values="0 0 0 0 0.396667 0 0 0 0 0.312964 0 0 0 0 0.0161972 0 0 0 0.3 0"/>
<feBlend mode="normal" in2="effect1_dropShadow_20_1621" result="effect2_dropShadow_20_1621"/>
<feBlend mode="normal" in="SourceGraphic" in2="effect2_dropShadow_20_1621" result="shape"/>
</filter>
<filter id="filter2_d_20_1621" x="379.491" y="334.597" width="153.485" height="40.528" filterUnits="userSpaceOnUse" color-interpolation-filters="sRGB">
<feFlood flood-opacity="0" result="BackgroundImageFix"/>
<feColorMatrix in="SourceAlpha" type="matrix" values="0 0 0 0 0 0 0 0 0 0 0 0 0 0 0 0 0 0 127 0" result="hardAlpha"/>
<feOffset dx="-4" dy="4"/>
<feComposite in2="hardAlpha" operator="out"/>
<feColorMatrix type="matrix" values="0 0 0 0 1 0 0 0 0 0.749167 0 0 0 0 0.749167 0 0 0 0.3 0"/>
<feBlend mode="normal" in2="BackgroundImageFix" result="effect1_dropShadow_20_1621"/>
<feBlend mode="normal" in="SourceGraphic" in2="effect1_dropShadow_20_1621" result="shape"/>
</filter>
<filter id="filter3_d_20_1621" x="113" y="0" width="93.5737" height="100.721" filterUnits="userSpaceOnUse" color-interpolation-filters="sRGB">
<feFlood flood-opacity="0" result="BackgroundImageFix"/>
<feColorMatrix in="SourceAlpha" type="matrix" values="0 0 0 0 0 0 0 0 0 0 0 0 0 0 0 0 0 0 127 0" result="hardAlpha"/>
<feOffset dx="-4" dy="4"/>
<feComposite in2="hardAlpha" operator="out"/>
<feColorMatrix type="matrix" values="0 0 0 0 0.38 0 0 0 0 0.343235 0 0 0 0 0.01235 0 0 0 0.25 0"/>
<feBlend mode="normal" in2="BackgroundImageFix" result="effect1_dropShadow_20_1621"/>
<feBlend mode="normal" in="SourceGraphic" in2="effect1_dropShadow_20_1621" result="shape"/>
</filter>
<filter id="filter4_d_20_1621" x="590" y="215.688" width="94.5515" height="100.721" filterUnits="userSpaceOnUse" color-interpolation-filters="sRGB">
<feFlood flood-opacity="0" result="BackgroundImageFix"/>
<feColorMatrix in="SourceAlpha" type="matrix" values="0 0 0 0 0 0 0 0 0 0 0 0 0 0 0 0 0 0 127 0" result="hardAlpha"/>
<feOffset dx="-4" dy="4"/>
<feComposite in2="hardAlpha" operator="out"/>
<feColorMatrix type="matrix" values="0 0 0 0 0.38 0 0 0 0 0.343235 0 0 0 0 0.01235 0 0 0 0.25 0"/>
<feBlend mode="normal" in2="BackgroundImageFix" result="effect1_dropShadow_20_1621"/>
<feBlend mode="normal" in="SourceGraphic" in2="effect1_dropShadow_20_1621" result="shape"/>
</filter>
<filter id="filter5_d_20_1621" x="0" y="535.836" width="83.876" height="81.3772" filterUnits="userSpaceOnUse" color-interpolation-filters="sRGB">
<feFlood flood-opacity="0" result="BackgroundImageFix"/>
<feColorMatrix in="SourceAlpha" type="matrix" values="0 0 0 0 0 0 0 0 0 0 0 0 0 0 0 0 0 0 127 0" result="hardAlpha"/>
<feOffset dx="-4" dy="4"/>
<feComposite in2="hardAlpha" operator="out"/>
<feColorMatrix type="matrix" values="0 0 0 0 0.38 0 0 0 0 0.343235 0 0 0 0 0.01235 0 0 0 0.25 0"/>
<feBlend mode="normal" in2="BackgroundImageFix" result="effect1_dropShadow_20_1621"/>
<feBlend mode="normal" in="SourceGraphic" in2="effect1_dropShadow_20_1621" result="shape"/>
</filter>
</defs>
</svg>
