<svg width="490" height="510" viewBox="0 0 490 510" fill="none" xmlns="http://www.w3.org/2000/svg">
<g clip-path="url(#clip0_6_587)">
<g filter="url(#filter0_d_6_587)">
<path d="M74.5126 464.004C168.674 509.332 321.261 509.332 415.423 464.004C509.585 418.676 509.467 345.25 415.423 299.922C321.379 254.594 168.721 254.606 74.6066 299.922C-19.5081 345.239 -19.5316 418.699 74.5126 464.004Z" fill="white"/>
</g>
<g filter="url(#filter1_d_6_587)">
<path d="M377.899 127.1L382.225 123.739V114.12C382.225 106.508 388.232 97.6612 394.768 93.8493C401.304 90.0373 406.606 93.1249 406.606 100.749V102.138C407.98 99.8844 409.856 97.9855 412.084 96.5925C416.786 93.8492 420.607 96.0699 420.607 101.556V102.198L429.259 97.1506C432.351 95.3455 434.866 96.8062 434.866 100.416C434.76 102.381 434.197 104.293 433.223 105.998C432.249 107.702 430.891 109.15 429.259 110.225L377.899 140.175C374.807 141.98 372.292 140.519 372.292 136.909C372.398 134.944 372.961 133.032 373.935 131.328C374.91 129.624 376.268 128.175 377.899 127.1Z" fill="white"/>
</g>
<path d="M67.5649 388.524C66.9536 388.417 66.3071 388.227 65.5783 388.037C63.1219 387.371 60.701 386.579 58.3251 385.662C53.5864 383.925 49.1174 381.514 45.0531 378.501C42.8242 376.9 40.9172 374.885 39.434 372.564C37.9515 370.213 37.425 367.376 37.9645 364.643C38.2632 363.294 38.9377 362.059 39.9083 361.085C40.879 360.111 42.1054 359.437 43.4426 359.144C44.7004 358.943 46.0053 359.144 47.2632 358.919C47.9072 358.867 48.5179 358.608 49.0064 358.181C49.4948 357.754 49.8355 357.18 49.9787 356.544C49.9837 355.815 49.7884 355.1 49.4144 354.477C47.1305 350.251 45.1656 345.857 43.5367 341.331C42.1731 337.293 42.0909 332.926 43.3015 328.839C44.3296 324.772 46.531 321.105 49.626 318.305C51.0367 317.118 52.9881 316.096 54.6926 316.844C55.2346 317.123 55.7106 317.517 56.088 317.998C56.4654 318.48 56.7353 319.038 56.8792 319.635C57.1423 320.828 57.2763 322.047 57.2789 323.269C57.4467 325.899 57.9445 328.497 58.7601 331C59.1251 332.564 60.0138 333.952 61.2757 334.931C63.4623 336.308 66.4717 335.227 68.7993 336.344C71.1269 337.46 71.9262 340.025 72.032 342.448C72.1378 344.87 71.6559 347.317 71.9262 349.727C71.9736 350.488 72.2123 351.224 72.6198 351.865C73.267 352.565 74.0162 353.162 74.8416 353.634C75.926 354.54 76.7953 355.681 77.3853 356.972C77.9753 358.262 78.2711 359.67 78.2507 361.092C78.1794 363.932 77.6432 366.741 76.6637 369.405C75.5845 373.128 74.7984 376.932 74.3126 380.781C73.9294 383.139 72.9403 385.355 71.4443 387.206C71.0005 387.79 70.3945 388.228 69.7035 388.462C69.0126 388.697 68.268 388.719 67.5649 388.524Z" fill="#FFD339"/>
<path d="M71.4674 386.553C71.3981 386.552 71.3302 386.533 71.2705 386.497C71.2107 386.462 71.1611 386.411 71.1264 386.351C57.4077 362.98 53.07 346.521 51.8356 336.819C50.4837 326.25 52.3881 321.298 52.4704 321.096C52.4897 321.046 52.5186 321 52.5553 320.962C52.592 320.923 52.6359 320.892 52.6845 320.871C52.7331 320.849 52.7854 320.837 52.8384 320.836C52.8914 320.835 52.9441 320.845 52.9935 320.864C53.0429 320.884 53.0881 320.913 53.1263 320.95C53.1646 320.987 53.1952 321.031 53.2165 321.081C53.2378 321.13 53.2493 321.182 53.2504 321.236C53.2514 321.29 53.2421 321.343 53.2228 321.393C53.2228 321.476 51.3184 326.452 52.6468 336.831C53.8223 346.438 58.2189 362.754 71.82 385.947C71.8475 385.993 71.8657 386.044 71.8734 386.097C71.8812 386.15 71.8785 386.204 71.8653 386.256C71.8522 386.308 71.829 386.357 71.797 386.4C71.765 386.442 71.7248 386.478 71.6789 386.505C71.6129 386.537 71.5405 386.553 71.4674 386.553Z" fill="white"/>
<path d="M64.1325 373.003C47.4162 371.15 42.6905 365.605 42.4906 365.367C42.416 365.291 42.3741 365.189 42.3741 365.082C42.3741 364.975 42.416 364.873 42.4906 364.797C42.5269 364.758 42.5706 364.727 42.6191 364.706C42.6676 364.685 42.7199 364.674 42.7728 364.674C42.8256 364.674 42.8779 364.685 42.9264 364.706C42.9749 364.727 43.0186 364.758 43.0549 364.797C43.0549 364.856 47.8276 370.331 64.1561 372.148C64.2518 372.164 64.3386 372.215 64.4012 372.29C64.4639 372.365 64.4982 372.459 64.4982 372.558C64.4982 372.656 64.4639 372.751 64.4012 372.826C64.3386 372.901 64.2518 372.951 64.1561 372.967L64.1325 373.003Z" fill="white"/>
<path d="M59.4183 362.481C59.3293 362.481 59.2427 362.452 59.1715 362.398C59.1295 362.365 59.0944 362.325 59.0681 362.278C59.0418 362.232 59.0249 362.181 59.0183 362.128C59.0118 362.075 59.0157 362.021 59.0299 361.97C59.0441 361.918 59.0682 361.87 59.1009 361.828C64.4023 354.786 64.7432 343.243 64.755 343.124C64.7549 343.071 64.7656 343.018 64.7866 342.969C64.8075 342.919 64.8382 342.875 64.8768 342.838C64.9153 342.802 64.9609 342.773 65.0107 342.755C65.0605 342.737 65.1135 342.729 65.1664 342.732C65.2194 342.732 65.2718 342.743 65.3205 342.764C65.3691 342.786 65.413 342.817 65.4493 342.855C65.4857 342.894 65.5137 342.94 65.5318 342.991C65.5498 343.041 65.5575 343.095 65.5543 343.148C65.5543 343.635 65.2016 355.023 59.7475 362.315C59.7091 362.366 59.6594 362.408 59.6023 362.437C59.5452 362.466 59.4822 362.481 59.4183 362.481Z" fill="white"/>
<path d="M402.021 316.346C403.644 305.302 403.667 291.823 395.638 272.134C387.609 252.444 390.101 242.125 398.706 239.31C407.311 236.496 426.379 251.447 425.673 276.587C424.98 300.86 408.745 320.906 408.745 320.906L402.021 316.346Z" fill="#FFD339"/>
<path opacity="0.1" d="M402.021 316.346C403.644 305.302 403.667 291.823 395.638 272.134C387.609 252.444 390.101 242.125 398.706 239.31C407.311 236.496 426.379 251.447 425.673 276.587C424.98 300.86 408.745 320.906 408.745 320.906L402.021 316.346Z" fill="black"/>
<path d="M406.218 319.599C406.167 319.61 406.115 319.61 406.065 319.599C406.015 319.58 405.969 319.55 405.931 319.512C405.893 319.474 405.863 319.429 405.843 319.379C405.824 319.329 405.814 319.275 405.816 319.221C405.818 319.167 405.83 319.114 405.853 319.065C405.936 318.863 414.728 298.117 414.082 279.282C413.353 257.61 401.469 245.687 401.351 245.568C401.313 245.531 401.283 245.486 401.262 245.437C401.242 245.388 401.231 245.335 401.23 245.282C401.23 245.228 401.24 245.175 401.259 245.125C401.279 245.076 401.308 245.031 401.345 244.992C401.382 244.954 401.427 244.924 401.475 244.903C401.524 244.882 401.576 244.871 401.629 244.87C401.682 244.87 401.735 244.88 401.784 244.9C401.833 244.92 401.878 244.949 401.915 244.986C402.033 245.105 414.14 257.23 414.846 279.259C415.492 298.259 406.617 319.184 406.547 319.385C406.514 319.446 406.466 319.497 406.409 319.534C406.352 319.572 406.286 319.594 406.218 319.599Z" fill="white"/>
<path d="M402.491 326.143C402.491 326.143 407.029 299.447 423.134 284.104C439.239 268.761 466.089 265.84 474.506 274.034C482.923 282.228 477.527 290.196 465.666 292.963C452.264 296.086 444.047 301.549 452.264 305.729C459.894 309.6 459.036 317.996 451.089 322.022C438.393 328.458 415.47 322.331 409.944 334.99L402.491 326.143Z" fill="#FFD339"/>
<path d="M405.9 331.796H405.771C405.671 331.758 405.589 331.682 405.543 331.585C405.496 331.487 405.49 331.375 405.524 331.273C409.236 320.834 414.958 311.24 422.358 303.045C428.158 296.708 434.949 291.376 442.46 287.263C449.922 283.103 458.045 280.289 466.465 278.95C466.572 278.94 466.679 278.973 466.762 279.042C466.846 279.111 466.899 279.21 466.911 279.318C466.918 279.371 466.914 279.425 466.9 279.477C466.885 279.528 466.861 279.576 466.828 279.618C466.796 279.66 466.755 279.695 466.709 279.721C466.662 279.747 466.611 279.764 466.559 279.77C458.224 281.122 450.188 283.935 442.812 288.082C431.057 294.531 415.105 307.32 406.253 331.605C406.214 331.664 406.162 331.712 406.1 331.745C406.039 331.778 405.97 331.796 405.9 331.796Z" fill="white"/>
<path d="M414.071 315.004C413.986 315.004 413.903 314.978 413.834 314.929C413.765 314.881 413.712 314.811 413.683 314.731C413.649 314.629 413.655 314.517 413.701 314.419C413.747 314.322 413.829 314.246 413.93 314.208C427.672 309.363 447.374 311.905 447.574 311.928C447.626 311.935 447.677 311.953 447.723 311.98C447.769 312.006 447.809 312.042 447.841 312.084C447.873 312.127 447.897 312.175 447.911 312.227C447.924 312.279 447.928 312.333 447.921 312.386C447.914 312.439 447.897 312.49 447.87 312.536C447.844 312.582 447.808 312.623 447.766 312.655C447.724 312.688 447.676 312.712 447.625 312.726C447.574 312.739 447.521 312.743 447.468 312.736C447.28 312.736 427.754 310.195 414.2 314.98C414.16 314.999 414.115 315.008 414.071 315.004Z" fill="white"/>
<path d="M84.446 41.2418C84.3477 39.4077 83.8228 37.6229 82.9139 36.0321C82.005 34.4413 80.7377 33.0893 79.2148 32.0859L74.9475 29.5921C73.3265 28.7607 71.5342 28.3274 69.7163 28.3274C67.8984 28.3274 66.1061 28.7607 64.4851 29.5921L30.735 49.2695C29.1277 50.2898 27.8142 51.7191 26.9262 53.414C26.1616 54.7607 25.6813 56.2526 25.5155 57.796C25.5155 58.0098 25.5155 58.2235 25.5155 58.4373V97.7922C25.6151 99.6273 26.1418 101.413 27.0528 103.004C27.9638 104.595 29.2334 105.946 30.7585 106.948L35.014 109.442L35.5548 109.727L35.7546 109.81L36.119 109.964L36.4012 110.071L36.7068 110.178L37.0477 110.273L37.3063 110.344L37.706 110.439H37.9059L38.3878 110.523H38.4819C40.8919 110.922 43.3651 110.526 45.5352 109.394L79.2148 89.7644C80.7401 88.7598 82.0097 87.4062 82.9206 85.8134C83.8315 84.2206 84.3581 82.4334 84.4577 80.5967L84.446 41.2418Z" fill="url(#paint0_linear_6_587)"/>
<path opacity="0.4" d="M41.7613 61.8216C41.1569 62.8329 40.7052 63.9296 40.4212 65.0755C41.123 62.1074 42.9289 59.5261 45.4643 57.8672L79.2144 38.1897C82.1063 36.5034 84.4574 37.8691 84.4574 41.2417C84.3578 39.4066 83.8311 37.621 82.9201 36.0302C82.0092 34.4393 80.7395 33.0879 79.2144 32.0858L74.9472 29.592C73.3262 28.7606 71.5339 28.3273 69.716 28.3273C67.898 28.3273 66.1058 28.7606 64.4848 29.592L30.7347 49.2694C29.1273 50.2897 27.8138 51.719 26.9259 53.4139L27.0317 53.2239L41.7613 61.8216Z" fill="white"/>
<path opacity="0.1" d="M44.3832 109.94L44.1363 110.012L43.7131 110.095H43.3134H42.902C42.4158 110.059 41.9504 109.881 41.5618 109.584L41.3737 109.406L41.2679 109.311L41.1269 109.133L41.0093 108.979L40.8918 108.789L40.786 108.598C40.786 108.598 40.786 108.468 40.7037 108.397C40.6674 108.324 40.636 108.248 40.6096 108.171L40.4215 107.981V107.743C40.4215 107.672 40.4215 107.601 40.4215 107.53C40.415 107.415 40.415 107.3 40.4215 107.185C40.4151 107.122 40.4151 107.058 40.4215 106.995C40.4215 106.817 40.4215 106.627 40.4215 106.425V67.0348C40.4222 66.609 40.4576 66.1841 40.5273 65.7642C40.5273 65.6098 40.5273 65.4435 40.6214 65.2891V65.0991C40.8907 63.9558 41.3264 62.8593 41.9145 61.8453L27.032 53.2238L26.9262 53.4138C26.1616 54.7604 25.6813 56.2524 25.5155 57.7958C25.5155 58.0096 25.5155 58.2233 25.5155 58.4371V97.7919C25.6151 99.6271 26.1418 101.413 27.0528 103.003C27.9638 104.594 29.2334 105.946 30.7585 106.948L35.014 109.442L35.5548 109.727L35.7546 109.81L36.119 109.964L36.4012 110.071L36.7068 110.178L37.0477 110.273L37.3063 110.344L37.706 110.439H37.9059L38.3878 110.522H38.4819C40.4663 110.827 42.4945 110.627 44.3832 109.94Z" fill="black"/>
<path d="M69.7044 77.3309C71.9586 72.244 73.1128 66.7299 73.09 61.1567C74.1913 59.4307 75.1169 57.5965 75.8525 55.6821C74.9035 56.8063 73.8352 57.8217 72.6668 58.7103C73.8524 57.0362 74.6811 55.1316 75.1001 53.1171C74.0828 54.5459 72.8987 55.8458 71.5735 56.9884C70.9873 56.5479 70.2762 56.31 69.5457 56.31C68.8151 56.31 68.104 56.5479 67.5178 56.9884C63.9912 59.0785 61.3109 65.1112 62.1221 69.315C57.5139 71.6901 53.423 71.0963 50.6957 68.1275C49.238 72.3314 49.9433 76.3215 52.412 77.0934C51.6565 77.5516 50.7705 77.7399 49.8963 77.6278C49.8963 81.1904 51.6714 83.2923 54.3399 82.4491C53.6325 83.1608 52.7772 83.7044 51.836 84.0404C52.5413 86.5936 54.5868 87.6031 57.0202 86.2136C55.1259 89.6163 52.2574 92.3608 48.7913 94.087C51.2364 94.7758 54.1518 94.3126 57.2905 92.4838C62.7686 89.2893 66.9771 83.5061 69.6691 77.2478" fill="white"/>
<path d="M84.4459 184.542C84.3404 182.716 83.8121 180.94 82.9036 179.358C81.995 177.776 80.7315 176.432 79.2147 175.433L74.9475 172.939C73.3265 172.108 71.5342 171.675 69.7163 171.675C67.8983 171.675 66.106 172.108 64.4851 172.939L30.7467 192.617C29.1394 193.637 27.8259 195.066 26.9379 196.761C26.1733 198.108 25.693 199.6 25.5273 201.143C25.5273 201.357 25.5273 201.571 25.5273 201.785V241.139C25.6301 242.963 26.1548 244.737 27.0592 246.319C27.9636 247.901 29.2226 249.246 30.735 250.248L34.9904 252.742L35.5312 253.015L35.731 253.11L36.0955 253.264L36.3776 253.371L36.6832 253.478L37.0242 253.573L37.2828 253.644L37.6825 253.739H37.8823L38.3643 253.822H38.4583C40.8747 254.203 43.3482 253.787 45.5116 252.635L79.2147 233.064C80.7401 232.06 82.0097 230.706 82.9206 229.113C83.8315 227.52 84.3581 225.733 84.4577 223.896L84.4459 184.542Z" fill="url(#paint1_linear_6_587)"/>
<path opacity="0.4" d="M41.7612 205.122C41.1732 206.136 40.7374 207.232 40.4681 208.375C41.1583 205.415 42.9465 202.835 45.4642 201.167L79.2143 181.49C82.1062 179.803 84.4573 181.169 84.4573 184.542C84.3505 182.715 83.8204 180.939 82.9097 179.357C81.999 177.775 80.7332 176.431 79.2143 175.433L74.9471 172.939C73.3261 172.108 71.5338 171.675 69.7158 171.675C67.8979 171.675 66.1056 172.108 64.4846 172.939L30.7463 192.617C29.139 193.637 27.8255 195.066 26.9375 196.761L27.0433 196.571L41.7612 205.122Z" fill="white"/>
<path opacity="0.1" d="M44.3832 253.24L44.1364 253.311C43.998 253.354 43.8565 253.386 43.7132 253.406H43.3135H42.902C42.4159 253.37 41.9505 253.193 41.5619 252.896L41.3738 252.718L41.268 252.623L41.1269 252.433L41.0094 252.29L40.8918 252.1L40.786 251.91C40.786 251.839 40.786 251.78 40.7037 251.708C40.6654 251.632 40.6339 251.553 40.6097 251.471L40.5392 251.269L40.4686 250.984C40.4686 250.984 40.4686 250.853 40.4686 250.782C40.4621 250.667 40.4621 250.552 40.4686 250.438C40.4622 250.374 40.4622 250.311 40.4686 250.248C40.4686 250.07 40.4686 249.868 40.4686 249.666V210.335C40.4693 209.909 40.5047 209.484 40.5744 209.064C40.5744 208.898 40.5744 208.743 40.6685 208.589V208.399C40.9378 207.256 41.3736 206.159 41.9616 205.145L27.2319 196.547L27.1261 196.737C26.3615 198.084 25.8812 199.576 25.7155 201.119C25.7155 201.333 25.7155 201.547 25.7155 201.761V241.116C25.7935 242.927 26.2877 244.695 27.1589 246.28C28.0301 247.865 29.2545 249.223 30.7351 250.248L34.9906 252.741L35.5313 253.015L35.7312 253.11L36.0956 253.264L36.3777 253.371L36.6834 253.478L37.0243 253.573L37.2829 253.644L37.6826 253.739H37.8824L38.3644 253.822H38.4584C40.4505 254.131 42.4873 253.931 44.3832 253.24Z" fill="black"/>
<path d="M62.3337 202.746C65.7898 200.727 66.2012 200.514 67.5649 199.801C68.2827 199.366 69.0843 199.091 69.916 198.994C70.4476 198.939 70.9792 199.097 71.3972 199.433C71.8671 199.793 72.2093 200.297 72.3729 200.87C72.6758 201.834 72.8265 202.84 72.8196 203.851C72.8784 205.644 72.8901 206.226 72.8901 210.845C72.8901 215.465 72.8901 216.047 72.8196 217.97C72.799 219.147 72.6492 220.318 72.3729 221.462C72.1602 222.356 71.8321 223.219 71.3972 224.027C71.0072 224.818 70.5086 225.55 69.916 226.2C69.2248 226.969 68.4339 227.64 67.5649 228.195C66.2012 229.074 65.7898 229.383 62.3337 231.342C58.8775 233.302 58.4779 233.587 57.1142 234.299C56.3954 234.73 55.5939 235.001 54.7631 235.095C54.2278 235.15 53.6923 234.992 53.2702 234.655C52.807 234.291 52.4696 233.788 52.3062 233.218C52.004 232.259 51.8532 231.257 51.8595 230.25C51.8595 228.445 51.7772 227.874 51.7772 223.255C51.7772 218.635 51.7772 218.042 51.8595 216.13C51.8769 214.929 52.0268 213.734 52.3062 212.567C52.5221 211.675 52.8459 210.814 53.2702 210.002C53.67 209.214 54.1721 208.483 54.7631 207.829C55.4516 207.057 56.2429 206.386 57.1142 205.834C58.4779 204.955 58.8893 204.646 62.3337 202.687M62.3337 199.552C58.807 201.594 58.3838 201.927 57.0084 202.758C55.8471 203.492 54.791 204.383 53.8697 205.406C52.9358 206.402 52.1444 207.526 51.5186 208.743C50.8631 209.995 50.3617 211.323 50.0256 212.698C49.6598 214.199 49.4588 215.736 49.4261 217.282C49.4261 219.17 49.3438 219.776 49.3438 224.502C49.3438 229.228 49.3438 229.822 49.4261 231.627C49.4263 232.945 49.6286 234.255 50.0256 235.51C50.2861 236.384 50.8075 237.156 51.5186 237.719C52.1855 238.245 53.0287 238.487 53.8697 238.396C54.976 238.285 56.0461 237.937 57.0084 237.375C58.3838 236.65 58.8188 236.413 62.3337 234.37C65.8486 232.328 66.2835 231.995 67.6707 231.152C69.9814 229.708 71.859 227.655 73.1017 225.214C73.7556 223.963 74.2531 222.635 74.5829 221.26C74.9534 219.763 75.1584 218.23 75.1942 216.688C75.1942 214.788 75.2647 214.182 75.2647 209.456C75.2647 204.729 75.2647 204.148 75.1942 202.331C75.1926 201.016 74.9863 199.709 74.5829 198.459C74.3243 197.584 73.8076 196.809 73.1017 196.239C72.4342 195.715 71.5903 195.476 70.7506 195.574C69.6431 195.678 68.5718 196.027 67.6119 196.595C66.2247 197.307 65.7898 197.545 62.2749 199.599M62.2749 208.066C58.6072 210.204 55.633 215.94 55.633 220.88C55.633 225.82 58.6072 228.088 62.2749 225.951C65.9426 223.813 68.9168 218.077 68.9168 213.137C68.9168 208.197 65.9426 205.929 62.2749 208.066ZM62.2749 222.816C59.9238 224.205 57.9724 222.732 57.9724 219.526C57.9724 216.32 59.9003 212.591 62.2749 211.213C64.6495 209.836 66.5892 211.297 66.5892 214.515C66.5892 217.733 64.6613 221.438 62.2749 222.827M70.7271 202.794C70.7271 201.606 70.0335 201.107 69.1754 201.606C68.7016 201.949 68.3142 202.4 68.0447 202.921C67.7751 203.443 67.6309 204.022 67.6237 204.611C67.6237 205.798 68.3172 206.285 69.1754 205.798C69.6476 205.457 70.034 205.008 70.3035 204.488C70.5729 203.969 70.718 203.392 70.7271 202.806" fill="white"/>
<path d="M143.176 92.9112C143.084 91.0811 142.567 89.2986 141.666 87.708C140.765 86.1174 139.507 84.7633 137.992 83.7553L133.725 81.2615C132.102 80.43 130.307 79.9967 128.488 79.9967C126.668 79.9967 124.874 80.43 123.25 81.2615L89.5121 100.939C88.0853 101.895 86.8808 103.153 85.9818 104.625C85.0827 106.097 84.5104 107.748 84.3044 109.465C84.3044 109.679 84.3044 109.893 84.3044 110.107V149.462C84.4018 151.296 84.9263 153.081 85.8353 154.672C86.7443 156.263 88.0121 157.615 89.5356 158.617L93.8029 161.111L94.3437 161.396L94.5435 161.479L94.9079 161.634L95.1783 161.741L95.4957 161.848L95.8249 161.943L96.0952 162.014L96.4949 162.109H96.6948L97.1767 162.192H97.2708C99.6808 162.59 102.154 162.195 104.324 161.064L137.992 141.434C139.516 140.429 140.784 139.075 141.692 137.482C142.601 135.889 143.126 134.102 143.223 132.266L143.176 92.9112Z" fill="url(#paint2_linear_6_587)"/>
<path opacity="0.4" d="M100.504 113.491C99.9171 114.507 99.4777 115.603 99.1987 116.745C99.8917 113.783 101.684 111.202 104.207 109.537L137.992 89.8592C140.884 88.1729 143.223 89.5386 143.223 92.9112C143.126 91.0769 142.601 89.2917 141.692 87.7007C140.783 86.1098 139.515 84.758 137.992 83.7553L133.725 81.2615C132.102 80.43 130.307 79.9967 128.488 79.9967C126.668 79.9967 124.874 80.43 123.25 81.2615L89.5121 100.939C87.9109 101.963 86.6021 103.392 85.7151 105.083L85.8091 104.893L100.504 113.491Z" fill="white"/>
<path opacity="0.1" d="M103.125 161.611L102.867 161.682C102.732 161.725 102.595 161.756 102.455 161.777H102.067H101.55C101.068 161.739 100.607 161.562 100.222 161.266L100.033 161.088L99.9277 160.993L99.7749 160.803L99.6691 160.661C99.6231 160.602 99.5837 160.538 99.5515 160.471L99.4457 160.281C99.4457 160.221 99.4457 160.15 99.3517 160.079L99.2694 159.853L99.1988 159.639C99.1988 159.552 99.1753 159.457 99.1283 159.354C99.1216 159.287 99.1216 159.219 99.1283 159.152C99.1218 159.038 99.1218 158.923 99.1283 158.808C99.1219 158.745 99.1219 158.681 99.1283 158.618C99.1163 158.428 99.1163 158.238 99.1283 158.048V118.705C99.1348 118.279 99.1702 117.855 99.2341 117.434C99.2341 117.268 99.2341 117.114 99.3164 116.959C99.321 116.896 99.321 116.833 99.3164 116.769C99.5955 115.627 100.035 114.532 100.621 113.515L85.8798 104.918L85.7858 105.108C85.0161 106.452 84.5355 107.945 84.3751 109.49C84.3751 109.703 84.3751 109.917 84.3751 110.131V149.486C84.4725 151.32 84.997 153.105 85.9059 154.696C86.8149 156.287 88.0828 157.639 89.6063 158.642L93.8736 161.136L94.4143 161.421L94.6142 161.504L94.9786 161.658L95.249 161.765L95.5664 161.872L95.8955 161.967L96.1659 162.038L96.5656 162.133H96.7654L97.2474 162.216H97.3415C99.2894 162.493 101.275 162.285 103.125 161.611Z" fill="black"/>
<path d="M117.432 147.312L123.062 144.023V125.022L126.988 122.73L127.4 116.128L123.062 118.657V115.035C123.062 113.539 123.286 112.814 124.355 112.197L127.4 110.416V103.813L123.509 106.093C121.584 107.118 119.989 108.678 118.912 110.588C117.836 112.499 117.322 114.68 117.432 116.876V121.994L114.481 123.669V130.105L117.408 128.407L117.432 147.312Z" fill="white"/>
<path d="M66.942 395.127L201.813 473.765C203.397 474.579 205.15 475.003 206.927 475.003C208.704 475.003 210.456 474.579 212.04 473.765L422.37 351.105C425.192 349.454 425.192 346.794 422.37 345.167L287.499 266.481C285.917 265.668 284.167 265.244 282.391 265.244C280.616 265.244 278.866 265.668 277.284 266.481L66.942 389.189C64.1207 390.804 64.1207 393.464 66.942 395.127Z" fill="#E0E0E0"/>
<path d="M71.1858 376.126L202.236 452.568C203.838 453.388 205.608 453.815 207.403 453.815C209.198 453.815 210.968 453.388 212.569 452.568L420.348 331.404C423.205 329.741 423.205 327.045 420.348 325.383L289.286 248.941C287.685 248.121 285.915 247.694 284.119 247.694C282.324 247.694 280.554 248.121 278.953 248.941L71.1858 370.189C68.3292 371.792 68.3292 374.487 71.1858 376.126Z" fill="#37474F"/>
<path d="M202.236 452.592L71.1857 376.126C68.6348 374.642 68.3644 372.326 70.3746 370.664C69.0973 371.687 68.0484 372.971 67.2968 374.432C66.5452 375.894 66.1078 377.499 66.0133 379.143V384.047C66.1111 385.86 66.6304 387.624 67.5291 389.196C68.4278 390.768 69.6805 392.104 71.1857 393.096L202.236 469.526C203.827 470.38 205.608 470.809 207.409 470.773V453.839C205.608 453.875 203.827 453.445 202.236 452.592Z" fill="#455A64"/>
<path d="M420.349 348.362C421.852 347.372 423.103 346.038 424 344.467C424.897 342.897 425.414 341.135 425.509 339.325V334.42C425.416 332.776 424.979 331.171 424.227 329.709C423.475 328.248 422.426 326.964 421.148 325.941C423.158 327.604 422.9 329.919 420.349 331.404L212.57 452.592C210.982 453.443 209.206 453.873 207.409 453.839V470.797C209.206 470.831 210.982 470.401 212.57 469.55L420.349 348.362Z" fill="#263238"/>
<path d="M141.519 411.432C143.743 412.574 146.202 413.169 148.696 413.169C151.19 413.169 153.649 412.574 155.873 411.432C159.834 409.057 159.834 405.375 155.873 403.06C153.647 401.924 151.189 401.332 148.696 401.332C146.203 401.332 143.744 401.924 141.519 403.06C137.605 405.375 137.605 409.128 141.519 411.432Z" fill="#263238"/>
<path d="M222.633 436.37L97.1896 363.158C95.485 362.161 95.485 360.534 97.1896 359.536L260.591 264.201C261.551 263.71 262.613 263.454 263.689 263.454C264.765 263.454 265.826 263.71 266.786 264.201L392.23 337.413C393.946 338.41 393.946 340.025 392.23 340.975L228.828 436.322C227.872 436.821 226.812 437.085 225.736 437.094C224.66 437.102 223.597 436.854 222.633 436.37Z" fill="white"/>
<path d="M345.336 292.535C345.9 292.823 346.522 292.972 347.153 292.972C347.783 292.972 348.405 292.823 348.969 292.535C349.164 292.437 349.329 292.285 349.444 292.098C349.559 291.91 349.62 291.693 349.62 291.473C349.62 291.252 349.559 291.035 349.444 290.848C349.329 290.66 349.164 290.508 348.969 290.41C348.405 290.123 347.783 289.973 347.153 289.973C346.522 289.973 345.9 290.123 345.336 290.41C344.326 290.992 344.326 291.942 345.336 292.535Z" fill="#263238"/>
<path d="M351.144 309.185C352.27 309.759 353.514 310.058 354.776 310.058C356.038 310.058 357.282 309.759 358.408 309.185C360.418 307.997 360.418 306.109 358.408 304.945C357.283 304.366 356.039 304.064 354.776 304.064C353.513 304.064 352.268 304.366 351.144 304.945C349.134 306.062 349.134 308.009 351.144 309.185Z" fill="#263238"/>
<path d="M346.065 301.798C347.406 301.027 347.335 299.72 345.901 298.889L321.99 284.935C321.221 284.523 320.367 284.3 319.497 284.283C318.627 284.267 317.766 284.458 316.982 284.84C315.642 285.624 315.713 286.931 317.147 287.762L341.058 301.715C341.827 302.126 342.682 302.347 343.552 302.362C344.422 302.376 345.283 302.183 346.065 301.798Z" fill="#263238"/>
<path d="M258.475 283.89C256.759 284.888 256.759 286.503 258.475 287.453L354.048 343.208C355.01 343.699 356.073 343.955 357.151 343.955C358.229 343.955 359.292 343.699 360.255 343.208L381.415 330.893L279.635 271.516L258.475 283.89Z" fill="#EBEBEB"/>
<path d="M259.181 293.569L251.551 289.128C251.233 288.964 250.88 288.879 250.523 288.879C250.165 288.879 249.813 288.964 249.494 289.128L244.686 291.93C244.11 292.263 244.11 292.797 244.686 293.118L245.344 293.51L242.911 294.816C242.629 294.97 242.652 295.065 242.981 295.042L247.26 294.626L252.315 297.571C252.637 297.731 252.991 297.813 253.35 297.813C253.708 297.813 254.062 297.731 254.384 297.571L259.181 294.769C259.301 294.722 259.405 294.64 259.478 294.533C259.551 294.426 259.591 294.299 259.591 294.169C259.591 294.039 259.551 293.912 259.478 293.804C259.405 293.697 259.301 293.615 259.181 293.569Z" fill="#EBEBEB"/>
<path d="M261.426 305.159L260.861 303.972C260.133 302.416 259.686 300.302 261.802 299.079C262.603 298.669 263.489 298.455 264.388 298.455C265.286 298.455 266.172 298.669 266.974 299.079C268.079 299.72 268.326 300.682 267.714 301.454C269.087 301.074 270.55 301.227 271.817 301.882C272.131 301.985 272.405 302.185 272.599 302.455C272.793 302.725 272.897 303.05 272.897 303.384C272.897 303.717 272.793 304.042 272.599 304.312C272.405 304.582 272.131 304.783 271.817 304.886C269.748 306.074 266.127 305.86 263.459 305.444L261.426 305.159Z" fill="#EBEBEB"/>
<path d="M156.684 346.865L252.268 402.62C253.23 403.112 254.293 403.368 255.372 403.368C256.45 403.368 257.513 403.112 258.475 402.62L332.911 359.192C334.616 358.194 334.616 356.579 332.911 355.629L237.327 299.827C236.365 299.336 235.302 299.079 234.223 299.079C233.145 299.079 232.082 299.336 231.12 299.827L156.684 343.255C154.968 344.253 154.968 345.868 156.684 346.865Z" fill="#EBEBEB"/>
<path d="M157.413 352.933L149.748 348.48C149.426 348.321 149.072 348.238 148.714 348.238C148.355 348.238 148.001 348.321 147.679 348.48L142.871 351.283C142.755 351.331 142.655 351.413 142.584 351.519C142.514 351.625 142.476 351.749 142.476 351.876C142.476 352.004 142.514 352.128 142.584 352.234C142.655 352.34 142.755 352.422 142.871 352.47L143.541 352.862L141.108 354.157C140.814 354.311 140.849 354.418 141.108 354.382L145.387 353.978L150.442 356.924C150.764 357.083 151.118 357.166 151.476 357.166C151.835 357.166 152.189 357.083 152.511 356.924L157.319 354.109C157.441 354.074 157.55 354.002 157.63 353.903C157.711 353.804 157.76 353.682 157.77 353.554C157.78 353.426 157.751 353.298 157.688 353.187C157.624 353.076 157.528 352.988 157.413 352.933Z" fill="#EBEBEB"/>
<path d="M159.599 364.512L159.047 363.325C158.306 361.769 157.871 359.655 159.987 358.42C160.787 358.01 161.671 357.797 162.567 357.797C163.464 357.797 164.348 358.01 165.147 358.42C166.323 359.074 166.511 360.035 165.888 360.795C167.265 360.43 168.727 360.582 170.002 361.223C170.315 361.329 170.586 361.532 170.779 361.803C170.971 362.073 171.075 362.398 171.075 362.731C171.075 363.064 170.971 363.389 170.779 363.66C170.586 363.93 170.315 364.133 170.002 364.239C167.933 365.427 164.313 365.213 161.633 364.797L159.599 364.512Z" fill="#EBEBEB"/>
<path d="M129.353 359.192C130.315 358.701 131.378 358.445 132.456 358.445C133.534 358.445 134.597 358.701 135.559 359.192L231.132 414.935C232.848 415.933 232.848 417.559 231.132 418.557L211.629 429.934L109.874 370.557L129.353 359.192Z" fill="#EBEBEB"/>
<path d="M235.564 346.354L181.159 361.115L252.292 402.608C253.254 403.099 254.317 403.356 255.395 403.356C256.473 403.356 257.536 403.099 258.499 402.608L260.039 401.705L290.732 356.211L225.548 369.131L235.564 346.354Z" fill="#E0E0E0"/>
<path d="M262.354 314.434L237.327 299.827C236.365 299.336 235.302 299.079 234.224 299.079C233.145 299.079 232.082 299.336 231.12 299.827L203.142 316.156C204.423 318.614 207.068 320.906 211.077 322.889C222.832 328.565 241.97 328.565 253.761 322.889C258.699 320.514 261.555 317.521 262.354 314.434Z" fill="#E0E0E0"/>
<path opacity="0.2" d="M383.048 309.291L257.593 236.092C256.633 235.6 255.572 235.344 254.496 235.344C253.419 235.344 252.358 235.6 251.398 236.092L87.9963 331.427C86.2918 332.425 86.2918 334.04 87.9963 334.99L114.517 350.428L213.487 408.177C214.447 408.669 215.508 408.925 216.584 408.925C217.66 408.925 218.722 408.669 219.682 408.177L366.767 322.331L383.036 312.83C384.765 311.916 384.765 310.289 383.048 309.291Z" fill="white"/>
<path d="M383.354 308.769L279.623 248.205L257.899 235.57C256.847 235.026 255.683 234.742 254.502 234.742C253.32 234.742 252.156 235.026 251.104 235.57L87.7025 330.905C87.2368 331.086 86.8363 331.405 86.5538 331.821C86.2713 332.236 86.1201 332.729 86.1201 333.233C86.1201 333.737 86.2713 334.229 86.5538 334.644C86.8363 335.06 87.2368 335.379 87.7025 335.56L114.223 350.998L213.228 408.783C214.279 409.329 215.444 409.614 216.625 409.614C217.807 409.614 218.972 409.329 220.023 408.783L367.096 322.937L383.377 313.436C383.842 313.253 384.241 312.932 384.522 312.516C384.804 312.099 384.954 311.607 384.954 311.103C384.954 310.599 384.804 310.106 384.522 309.69C384.241 309.274 383.842 308.953 383.377 308.769H383.354ZM382.754 312.391L366.473 321.892L219.4 407.738C218.529 408.178 217.569 408.406 216.596 408.406C215.623 408.406 214.663 408.178 213.792 407.738L114.822 350.001L88.3138 334.563C88.0306 334.489 87.7796 334.323 87.6003 334.09C87.421 333.856 87.3237 333.569 87.3237 333.274C87.3237 332.979 87.421 332.692 87.6003 332.459C87.7796 332.225 88.0306 332.059 88.3138 331.986L251.716 236.65C252.587 236.214 253.547 235.987 254.519 235.987C255.492 235.987 256.451 236.214 257.323 236.65L279.059 249.298L382.79 309.862C383.073 309.935 383.324 310.102 383.503 310.335C383.682 310.568 383.78 310.855 383.78 311.15C383.78 311.446 383.682 311.733 383.503 311.966C383.324 312.199 383.073 312.366 382.79 312.439L382.754 312.391Z" fill="white"/>
<g filter="url(#filter2_d_6_587)">
<path d="M326.751 12.4321C328.479 11.4227 329.889 12.2421 329.889 14.2609V247.718C329.829 248.819 329.513 249.89 328.968 250.845C328.423 251.8 327.663 252.612 326.751 253.217L236.562 305.824L225.982 341.45C225.03 344.68 223.126 344.823 221.739 341.747L212.052 320.146L185.72 335.501C183.992 336.51 182.581 335.691 182.581 333.672V100.215C182.64 99.1135 182.955 98.0419 183.5 97.0866C184.045 96.1313 184.806 95.3193 185.72 94.7164L326.751 12.4321Z" fill="url(#paint3_linear_6_587)"/>
</g>
<g filter="url(#filter3_d_6_587)">
<path d="M315.23 192.653C315.123 194.164 314.663 195.629 313.889 196.927C313.115 198.225 312.048 199.32 310.775 200.122L261.225 229.027C258.769 230.452 256.77 229.442 256.77 226.747C256.882 225.236 257.343 223.773 258.117 222.476C258.891 221.178 259.955 220.083 261.225 219.277L310.799 190.384C313.244 188.948 315.23 189.969 315.23 192.653Z" fill="white"/>
</g>
<g filter="url(#filter4_d_6_587)">
<path d="M306.096 221.521C305.986 223.032 305.525 224.496 304.751 225.793C303.977 227.091 302.911 228.186 301.641 228.991L260.485 253.027C258.028 254.464 256.041 253.442 256.041 250.747C256.149 249.238 256.608 247.777 257.38 246.481C258.152 245.185 259.216 244.091 260.485 243.289L301.688 219.253C304.145 217.816 306.096 218.837 306.096 221.521Z" fill="white"/>
</g>
<g filter="url(#filter5_d_6_587)">
<path d="M231.86 262.586L231.755 261.185C229.509 266.909 226.124 271.018 222.35 273.215C215.685 277.11 209.725 273.654 209.725 263.346C209.725 253.632 214.427 242.98 221.751 238.741C226.559 235.938 229.838 238.004 230.379 239.228V236.853C230.379 235.534 231.708 233.694 233.33 232.744C234.952 231.794 236.292 232.661 236.292 234.691V256.72C236.292 259.523 237.327 260.093 238.796 259.226C241.476 257.67 243.945 251.008 243.945 243.42C243.945 228.765 236.339 221.937 224.207 229.015C212.84 235.641 203.823 252.385 203.823 267.016C203.823 281.373 212.346 286.848 223.502 280.352C226.706 278.341 229.545 275.791 231.896 272.811C233.165 271.243 234.552 270.768 235.164 271.885C235.775 273.001 235.399 275.305 234.141 276.872C231.167 280.643 227.591 283.886 223.561 286.468C209.678 294.555 199.18 287.501 199.18 269.759C199.18 251.637 210.171 231.319 224.266 223.089C238.361 214.859 248.694 222.175 248.694 240.51C248.694 251.625 244.38 261.363 238.255 264.926C234.87 266.802 232.46 266.363 231.86 262.586ZM216.12 259.249C216.12 264.926 218.847 268.037 223.008 265.615C227.17 263.192 230.062 256.969 230.062 251.234C230.062 245.712 227.276 242.921 222.95 245.438C218.847 247.79 216.12 253.81 216.12 259.249Z" fill="white"/>
</g>
<g filter="url(#filter6_d_6_587)">
<path d="M256.206 87.5557C280.552 73.3053 300.277 84.8718 300.277 113.266C300.277 141.66 280.552 176.205 256.206 190.384C231.86 204.563 212.135 193.068 212.135 164.674C212.135 136.28 231.86 101.806 256.206 87.5557Z" fill="white"/>
<path d="M256.206 87.5557C280.552 73.3053 300.277 84.8718 300.277 113.266C300.277 141.66 280.552 176.205 256.206 190.384C231.86 204.563 212.135 193.068 212.135 164.674C212.135 136.28 231.86 101.806 256.206 87.5557Z" fill="#F5F5F5"/>
<mask id="mask0_6_587" style="mask-type:luminance" maskUnits="userSpaceOnUse" x="212" y="81" width="89" height="116">
<path d="M256.206 87.5557C280.552 73.3053 300.277 84.8718 300.277 113.266C300.277 141.66 280.552 176.205 256.206 190.384C231.86 204.563 212.135 193.068 212.135 164.674C212.135 136.28 231.86 101.806 256.206 87.5557Z" fill="white"/>
</mask>
<g mask="url(#mask0_6_587)">
<path d="M240.136 125.26C238.116 125.613 236.312 126.746 235.105 128.419C232.942 131.233 233.389 135.247 235.105 144.284L241.793 143.251L240.136 125.26Z" fill="#263238"/>
<path d="M279.117 111.96C280.62 111.554 282.037 110.878 283.302 109.965C285.359 108.219 285.888 110.44 284.76 112.791C284.011 114.467 282.941 115.977 281.612 117.232C280.282 118.488 278.719 119.465 277.013 120.106C276.943 119.821 275.086 115.356 275.086 115.356L279.117 111.96Z" fill="#263238"/>
<path d="M243.981 171.871C243.981 171.871 231.52 179.994 228.816 182.856C226.112 185.718 224.995 194.636 223.996 205.549C223.996 205.549 238.185 211.594 260.438 200.467C282.691 189.34 284.702 180.54 284.702 180.54C284.702 180.54 281.822 167.323 280.752 163.653C279.4 159.01 276.79 155.661 261.614 162.62L243.981 171.871Z" fill="#263238"/>
<path d="M243.275 142.859C242.276 143.726 240.865 142.182 239.643 141.22C238.42 140.259 234.423 139.57 232.425 144.356C230.426 149.141 235.011 153.725 237.715 154.901C238.64 155.294 239.658 155.407 240.645 155.225C241.633 155.044 242.546 154.576 243.275 153.88L243.981 171.871C243.981 171.871 247.507 178.034 257.147 176.751C266.786 175.469 264.776 165.684 261.626 162.62V158.915C261.626 158.915 266.598 158.582 268.938 157.323C270.195 156.647 273.181 152.181 275.109 147.574C279.085 139.086 279.991 129.46 277.672 120.367C274.228 106.497 258.487 110.309 249.106 118.812C239.725 127.314 243.275 142.859 243.275 142.859Z" fill="#FFA8A7"/>
<path d="M281.833 98.0422C280.987 95.2396 280.469 95.7384 273.663 100.572C268.465 104.269 262.663 107.015 256.523 108.683C251.727 110.155 245.168 111.319 241.794 115.808C240.343 117.738 239.603 120.119 239.701 122.541C239.415 122.273 239.068 122.081 238.69 121.983C237.033 121.532 234.999 122.755 234.141 124.726L240.019 126.306C239.56 129.726 238.244 140.283 239.678 141.209C240.912 142.005 242.805 144.677 243.31 144.534C244.991 144.047 245.661 136.518 246.578 131.958C247.577 126.769 247.965 124.833 249.811 124.619C255.805 123.665 261.706 122.182 267.444 120.19C273.792 117.684 275.614 115.558 275.614 115.558L279 113.385C280.511 111.172 281.544 108.662 282.033 106.018C282.521 103.375 282.453 100.657 281.833 98.0422Z" fill="#263238"/>
<path d="M261.602 158.915C261.602 158.915 252.703 159.521 249.6 158.69C247.812 158.259 246.265 157.132 245.297 155.554C245.737 157.206 246.577 158.72 247.742 159.96C250.011 162.335 261.602 161.314 261.602 161.314V158.915Z" fill="#F28F8F"/>
<path d="M259.333 148.477L263.4 148.916C263.233 149.526 262.872 150.063 262.373 150.445C261.873 150.826 261.264 151.032 260.638 151.03C259.509 150.911 258.933 149.771 259.333 148.477Z" fill="#F28F8F"/>
<path d="M265.211 132.445L265.798 143.121L271.405 139.689L265.211 132.445Z" fill="#F28F8F"/>
<path d="M259.462 136.245C259.451 136.779 259.273 137.296 258.955 137.722C258.636 138.149 258.193 138.463 257.687 138.62C257.476 138.693 257.25 138.712 257.03 138.676C256.809 138.639 256.601 138.548 256.424 138.41C256.247 138.273 256.107 138.093 256.015 137.887C255.924 137.681 255.884 137.456 255.9 137.23C255.914 136.695 256.094 136.178 256.415 135.752C256.735 135.326 257.18 135.012 257.687 134.855C257.898 134.782 258.123 134.762 258.343 134.798C258.563 134.835 258.771 134.926 258.947 135.064C259.124 135.202 259.263 135.382 259.353 135.589C259.443 135.795 259.48 136.02 259.462 136.245Z" fill="#263238"/>
<path d="M257.57 129.939L253.761 133.098C253.515 132.526 253.469 131.885 253.631 131.283C253.794 130.68 254.155 130.152 254.654 129.785C254.842 129.575 255.073 129.411 255.332 129.303C255.59 129.195 255.869 129.146 256.148 129.161C256.428 129.176 256.7 129.254 256.946 129.388C257.192 129.523 257.405 129.711 257.57 129.939Z" fill="#263238"/>
<path d="M275.367 126.614L271.841 124.856C272.106 124.307 272.56 123.873 273.117 123.635C273.675 123.397 274.299 123.371 274.874 123.562C275.114 123.722 275.319 123.93 275.475 124.174C275.632 124.418 275.737 124.692 275.783 124.979C275.829 125.265 275.816 125.559 275.745 125.84C275.673 126.122 275.545 126.385 275.367 126.614Z" fill="#263238"/>
<path d="M274.357 131.696C274.342 132.23 274.163 132.745 273.845 133.171C273.527 133.596 273.085 133.911 272.582 134.071C272.37 134.145 272.145 134.164 271.924 134.127C271.704 134.091 271.496 133.999 271.319 133.862C271.142 133.724 271.001 133.544 270.91 133.339C270.819 133.133 270.779 132.907 270.795 132.682C270.809 132.147 270.989 131.63 271.309 131.203C271.63 130.777 272.075 130.464 272.582 130.307C272.792 130.233 273.018 130.214 273.238 130.25C273.458 130.286 273.666 130.378 273.842 130.516C274.018 130.654 274.158 130.834 274.247 131.04C274.337 131.246 274.375 131.472 274.357 131.696Z" fill="#263238"/>
</g>
</g>
</g>
<defs>
<filter id="filter0_d_6_587" x="-12" y="253.931" width="514" height="264.069" filterUnits="userSpaceOnUse" color-interpolation-filters="sRGB">
<feFlood flood-opacity="0" result="BackgroundImageFix"/>
<feColorMatrix in="SourceAlpha" type="matrix" values="0 0 0 0 0 0 0 0 0 0 0 0 0 0 0 0 0 0 127 0" result="hardAlpha"/>
<feOffset dy="4"/>
<feGaussianBlur stdDeviation="8"/>
<feComposite in2="hardAlpha" operator="out"/>
<feColorMatrix type="matrix" values="0 0 0 0 0 0 0 0 0 0 0 0 0 0 0 0 0 0 0.1 0"/>
<feBlend mode="normal" in2="BackgroundImageFix" result="effect1_dropShadow_6_587"/>
<feBlend mode="normal" in="SourceGraphic" in2="effect1_dropShadow_6_587" result="shape"/>
</filter>
<filter id="filter1_d_6_587" x="356.292" y="76.2159" width="94.5746" height="80.7327" filterUnits="userSpaceOnUse" color-interpolation-filters="sRGB">
<feFlood flood-opacity="0" result="BackgroundImageFix"/>
<feColorMatrix in="SourceAlpha" type="matrix" values="0 0 0 0 0 0 0 0 0 0 0 0 0 0 0 0 0 0 127 0" result="hardAlpha"/>
<feOffset/>
<feGaussianBlur stdDeviation="8"/>
<feComposite in2="hardAlpha" operator="out"/>
<feColorMatrix type="matrix" values="0 0 0 0 0 0 0 0 0 0 0 0 0 0 0 0 0 0 0.05 0"/>
<feBlend mode="normal" in2="BackgroundImageFix" result="effect1_dropShadow_6_587"/>
<feBlend mode="normal" in="SourceGraphic" in2="effect1_dropShadow_6_587" result="shape"/>
</filter>
<filter id="filter2_d_6_587" x="173.581" y="5" width="159.308" height="343.966" filterUnits="userSpaceOnUse" color-interpolation-filters="sRGB">
<feFlood flood-opacity="0" result="BackgroundImageFix"/>
<feColorMatrix in="SourceAlpha" type="matrix" values="0 0 0 0 0 0 0 0 0 0 0 0 0 0 0 0 0 0 127 0" result="hardAlpha"/>
<feOffset dx="-3" dy="-1"/>
<feGaussianBlur stdDeviation="3"/>
<feComposite in2="hardAlpha" operator="out"/>
<feColorMatrix type="matrix" values="0 0 0 0 0 0 0 0 0 0 0 0 0 0 0 0 0 0 0.15 0"/>
<feBlend mode="normal" in2="BackgroundImageFix" result="effect1_dropShadow_6_587"/>
<feBlend mode="normal" in="SourceGraphic" in2="effect1_dropShadow_6_587" result="shape"/>
</filter>
<filter id="filter3_d_6_587" x="247.77" y="180.733" width="70.4602" height="51.9395" filterUnits="userSpaceOnUse" color-interpolation-filters="sRGB">
<feFlood flood-opacity="0" result="BackgroundImageFix"/>
<feColorMatrix in="SourceAlpha" type="matrix" values="0 0 0 0 0 0 0 0 0 0 0 0 0 0 0 0 0 0 127 0" result="hardAlpha"/>
<feOffset dx="-3" dy="-3"/>
<feGaussianBlur stdDeviation="3"/>
<feComposite in2="hardAlpha" operator="out"/>
<feColorMatrix type="matrix" values="0 0 0 0 0 0 0 0 0 0 0 0 0 0 0 0 0 0 0.1 0"/>
<feBlend mode="normal" in2="BackgroundImageFix" result="effect1_dropShadow_6_587"/>
<feBlend mode="normal" in="SourceGraphic" in2="effect1_dropShadow_6_587" result="shape"/>
</filter>
<filter id="filter4_d_6_587" x="247.041" y="209.602" width="62.055" height="47.0759" filterUnits="userSpaceOnUse" color-interpolation-filters="sRGB">
<feFlood flood-opacity="0" result="BackgroundImageFix"/>
<feColorMatrix in="SourceAlpha" type="matrix" values="0 0 0 0 0 0 0 0 0 0 0 0 0 0 0 0 0 0 127 0" result="hardAlpha"/>
<feOffset dx="-3" dy="-3"/>
<feGaussianBlur stdDeviation="3"/>
<feComposite in2="hardAlpha" operator="out"/>
<feColorMatrix type="matrix" values="0 0 0 0 0 0 0 0 0 0 0 0 0 0 0 0 0 0 0.1 0"/>
<feBlend mode="normal" in2="BackgroundImageFix" result="effect1_dropShadow_6_587"/>
<feBlend mode="normal" in="SourceGraphic" in2="effect1_dropShadow_6_587" result="shape"/>
</filter>
<filter id="filter5_d_6_587" x="190.18" y="210.732" width="61.5143" height="82.0653" filterUnits="userSpaceOnUse" color-interpolation-filters="sRGB">
<feFlood flood-opacity="0" result="BackgroundImageFix"/>
<feColorMatrix in="SourceAlpha" type="matrix" values="0 0 0 0 0 0 0 0 0 0 0 0 0 0 0 0 0 0 127 0" result="hardAlpha"/>
<feOffset dx="-3" dy="-3"/>
<feGaussianBlur stdDeviation="3"/>
<feComposite in2="hardAlpha" operator="out"/>
<feColorMatrix type="matrix" values="0 0 0 0 0 0 0 0 0 0 0 0 0 0 0 0 0 0 0.1 0"/>
<feBlend mode="normal" in2="BackgroundImageFix" result="effect1_dropShadow_6_587"/>
<feBlend mode="normal" in="SourceGraphic" in2="effect1_dropShadow_6_587" result="shape"/>
</filter>
<filter id="filter6_d_6_587" x="203.135" y="72.4521" width="100.143" height="127.004" filterUnits="userSpaceOnUse" color-interpolation-filters="sRGB">
<feFlood flood-opacity="0" result="BackgroundImageFix"/>
<feColorMatrix in="SourceAlpha" type="matrix" values="0 0 0 0 0 0 0 0 0 0 0 0 0 0 0 0 0 0 127 0" result="hardAlpha"/>
<feOffset dx="-3" dy="-3"/>
<feGaussianBlur stdDeviation="3"/>
<feComposite in2="hardAlpha" operator="out"/>
<feColorMatrix type="matrix" values="0 0 0 0 0 0 0 0 0 0 0 0 0 0 0 0 0 0 0.15 0"/>
<feBlend mode="normal" in2="BackgroundImageFix" result="effect1_dropShadow_6_587"/>
<feBlend mode="normal" in="SourceGraphic" in2="effect1_dropShadow_6_587" result="shape"/>
</filter>
<linearGradient id="paint0_linear_6_587" x1="43.9688" y1="63.6578" x2="84.2784" y2="97.6926" gradientUnits="userSpaceOnUse">
<stop stop-color="#2FB3DD"/>
<stop offset="1" stop-color="#92E5FF"/>
</linearGradient>
<linearGradient id="paint1_linear_6_587" x1="45.1443" y1="204.974" x2="84.2663" y2="237.834" gradientUnits="userSpaceOnUse">
<stop stop-color="#DB4395"/>
<stop offset="1" stop-color="#FC8DC9"/>
</linearGradient>
<linearGradient id="paint2_linear_6_587" x1="103.921" y1="120.659" x2="142.925" y2="144.059" gradientUnits="userSpaceOnUse">
<stop stop-color="#3552EB"/>
<stop offset="1" stop-color="#95A4F5"/>
</linearGradient>
<linearGradient id="paint3_linear_6_587" x1="215.599" y1="121.847" x2="325.043" y2="251.383" gradientUnits="userSpaceOnUse">
<stop stop-color="#FDD546"/>
<stop offset="1" stop-color="#FFEA9F"/>
</linearGradient>
<clipPath id="clip0_6_587">
<rect width="490" height="510" fill="white"/>
</clipPath>
</defs>
</svg>
