<svg width="2081" height="2002" viewBox="0 0 2081 2002" fill="none" xmlns="http://www.w3.org/2000/svg">
<g opacity="0.05">
<path d="M655.561 1384.95C612.021 1403.19 595.484 1447.88 623.942 1473.41C682.49 1525.92 923.525 1499.98 934.866 1464.38C946.036 1429.31 746.414 1346.89 655.561 1384.95Z" stroke="#78820A" stroke-opacity="0.75" stroke-width="5" stroke-miterlimit="10"/>
<path d="M763.447 1268.14C862.9 1233.31 1029.89 1481.4 960.961 1539.98C918.581 1575.99 815.986 1571.5 732.323 1559.66C653.78 1548.55 541.552 1503.12 513.864 1427.67C499.203 1387.61 508.004 1330.55 539.054 1310.56C563.084 1295.1 595.526 1302.06 602.683 1299.49C636.8 1313.65 641.807 1319.15 668.989 1322.47C704.518 1326.81 736.096 1277.73 763.447 1268.14Z" stroke="#78820A" stroke-opacity="0.75" stroke-width="5" stroke-miterlimit="10"/>
<path d="M864.352 1146.12C979.864 1164.57 1105.38 1526.95 980.08 1610.35C900.281 1663.46 761.17 1640.01 664.204 1611.93C575.131 1586.14 426.816 1500.06 396.809 1376.7C379.366 1305.03 400.561 1204.2 461.291 1175.04C509.701 1151.79 572.075 1171.78 583.057 1173.31C647.972 1208.25 653.221 1226.02 701.556 1237.98C765.555 1253.8 816.079 1138.37 864.352 1146.12Z" stroke="#78820A" stroke-opacity="0.75" stroke-width="5" stroke-miterlimit="10"/>
<path d="M957.948 1024.91C1085.48 1058.91 1173.55 1573.01 991.884 1681.52C874.642 1751.54 698.964 1709.54 588.77 1665C489.085 1624.72 305.302 1497.99 272.439 1326.55C252.614 1223.15 285.699 1078.77 376.204 1040.3C448.928 1009.38 541.805 1041.12 556.097 1047.94C656.014 1095.72 657.279 1133.69 726.842 1154.3C819.246 1181.75 891.158 1007.13 957.948 1024.91Z" stroke="#78820A" stroke-opacity="0.75" stroke-width="5" stroke-miterlimit="10"/>
<path d="M1045.91 909.203C1187.15 958.257 1235.86 1624.07 998.064 1758.21C843.209 1844.78 631.046 1784.68 507.719 1723.6C397.304 1668.93 178.287 1501.54 142.399 1281.9C120.339 1146.88 165.165 958.913 285.456 911.065C382.538 872.486 505.179 917.739 523.487 928.06C652.283 1000.66 655.614 1047.04 746.382 1076.14C867.21 1115.21 961.37 879.848 1045.91 909.203Z" stroke="#78820A" stroke-opacity="0.75" stroke-width="5" stroke-miterlimit="10"/>
<path d="M190.755 783.371C312.153 737.148 464.485 795.847 486.924 809.721C644.252 906.986 650.07 961.579 762.013 999.446C911.289 1049.95 1028.26 753.222 1129.85 794.966C1285.9 859.083 1294.66 1677.46 1000.21 1836.36C808.083 1940.06 559.016 1861.38 422.632 1783.66C301.508 1714.66 47.4142 1506.61 8.41694 1238.72C-15.8246 1072.09 40.6582 840.505 190.755 783.371Z" stroke="#78820A" stroke-opacity="0.75" stroke-width="5" stroke-miterlimit="10"/>
<path d="M1504.4 699.044C1456.57 698.643 1399.23 615.7 1442.11 601.85C1466.89 593.839 1532.46 606.509 1558.22 629.055C1594.5 660.782 1537.3 699.328 1504.4 699.044Z" stroke="#78820A" stroke-opacity="0.75" stroke-width="5" stroke-miterlimit="10"/>
<path d="M1374.44 613.465C1379.12 602.334 1401.03 597.391 1421.02 583.836C1461.58 556.325 1467.4 543.255 1496.2 526.664C1507.44 520.181 1522.55 511.665 1537.31 515.565C1559.91 521.542 1565.55 547.408 1594.22 592.964C1631.41 652.16 1645.49 667.464 1634.87 698.833C1632.39 706.127 1629.19 729.749 1611.28 744.157C1586.48 764.079 1557.41 748.69 1521.07 761.876C1477.42 777.685 1455.79 805.828 1436.84 793.39C1423.5 784.63 1423.01 760.643 1413.01 718.87C1405.4 687.049 1400.62 666.168 1391.37 649.135C1380.27 628.855 1369.23 625.84 1374.44 613.465Z" stroke="#78820A" stroke-opacity="0.75" stroke-width="5" stroke-miterlimit="10"/>
<path d="M1301.35 636.665C1302.16 616.933 1333.14 607.383 1358.68 578.871C1411.06 520.382 1386.79 478.588 1428.77 435.857C1446.58 417.717 1474.53 400.146 1502.55 403.551C1542.31 408.388 1555.66 449.465 1616.87 532.746C1696.88 641.629 1730.97 662.953 1723.49 720.978C1721.97 732.805 1720.48 778.21 1689.21 805.549C1647.5 841.996 1597.52 808.832 1532.22 836.225C1459.26 866.793 1432 932.146 1407.4 918.628C1390.32 909.234 1396.86 871.412 1383.73 797.654C1374.43 745.222 1368.69 714.58 1350.1 689.483C1326.65 657.83 1300.47 658.094 1301.35 636.665Z" stroke="#78820A" stroke-opacity="0.75" stroke-width="5" stroke-miterlimit="10"/>
<path d="M1228.18 659.612C1225.02 631.331 1265.14 617.112 1296.26 573.643C1360.35 484.154 1305.1 414.207 1361.26 344.787C1385.3 315.083 1426.54 288.511 1467.71 291.284C1524.79 295.12 1545.88 351.09 1639.52 472.275C1762.62 630.615 1815.64 658.494 1812.15 742.872C1811.47 759.325 1811.79 826.407 1767.17 866.716C1708.55 919.655 1637.53 868.662 1543.41 910.346C1441.07 955.677 1408.27 1058.2 1377.94 1043.63C1357.12 1033.56 1370.45 981.949 1354.43 876.202C1343.36 803.162 1336.69 762.909 1308.82 729.601C1272.9 686.68 1231.56 690.074 1228.18 659.612Z" stroke="#78820A" stroke-opacity="0.75" stroke-width="5" stroke-miterlimit="10"/>
<path d="M1154.84 682.496C1147.75 645.698 1196.9 626.757 1233.68 568.362C1309.33 447.82 1222.98 349.994 1293.6 253.664C1323.79 212.451 1378.4 176.866 1432.73 178.953C1507.16 181.82 1535.65 252.873 1661.96 411.751C1827.76 619.821 1899.91 654.183 1900.55 764.712C1900.68 785.796 1902.77 874.479 1844.86 927.813C1769.25 997.191 1677.35 928.392 1554.33 984.421C1422.58 1044.44 1384.25 1184.24 1348.31 1168.59C1323.75 1157.86 1343.88 1092.42 1324.95 954.696C1312.08 861.038 1304.53 811.227 1267.37 769.666C1218.95 715.529 1162.47 722.065 1154.84 682.496Z" stroke="#78820A" stroke-opacity="0.75" stroke-width="5" stroke-miterlimit="10"/>
<path d="M1081.37 705.368C1093.25 754.065 1164.85 744.368 1225.77 809.721C1272.22 859.547 1280.66 918.898 1295.33 1033.18C1317.11 1202.88 1290.22 1282.16 1318.51 1293.53C1360.12 1310.26 1403.97 1133.17 1565.15 1058.47C1716.98 988.106 1829.97 1074.86 1922.44 988.909C1993.74 922.637 1989.77 812.347 1988.85 786.53C1983.93 649.883 1892.76 609.006 1684.24 351.206C1525.26 154.635 1489.4 68.5194 1397.56 66.6115C1330.11 65.2096 1262.07 109.828 1225.77 162.53C1140.74 285.854 1258.37 411.614 1170.96 563.071C1128.6 636.465 1070.32 660.065 1081.37 705.368Z" stroke="#78820A" stroke-opacity="0.75" stroke-width="5" stroke-miterlimit="10"/>
<path d="M1689.04 1489.16C1676.57 1482.84 1650.36 1495.02 1648.04 1514.01C1645.42 1535.54 1675.07 1553.35 1688.09 1547.82C1703.5 1541.26 1705.6 1497.53 1689.04 1489.16Z" stroke="#78820A" stroke-opacity="0.75" stroke-width="5" stroke-miterlimit="10"/>
<path d="M1724.21 1603.58C1745.47 1583.69 1754.77 1547.19 1765.4 1484.62C1775.94 1422.58 1774.29 1378.16 1765.02 1374.94C1759.97 1373.2 1745.67 1386.8 1733.41 1396.77C1710.44 1415.39 1671.13 1413.32 1661.05 1415.34C1624.16 1422.71 1613.32 1436.42 1597.9 1462.66C1590.77 1474.79 1574.12 1501.66 1566.8 1533.28C1555.63 1581.17 1505.56 1595.92 1511.66 1615.12C1516.79 1631.14 1566.4 1635.04 1598.57 1635.48C1644.67 1636.14 1691.32 1634.29 1724.21 1603.58Z" stroke="#78820A" stroke-opacity="0.75" stroke-width="5" stroke-miterlimit="10"/>
<path d="M1761.07 1657.05C1796.03 1621.51 1809.78 1561.86 1830.97 1450.31C1852.49 1338.22 1852.36 1261.34 1841.76 1258.47C1833.79 1256.28 1808.03 1283.99 1786.12 1303.8C1744.84 1341.29 1670.93 1335.12 1655.71 1337.52C1586.24 1348.25 1569.13 1373.96 1542.21 1422.56C1531 1442.79 1500.23 1492.12 1486.21 1550.39C1464.64 1639.63 1362.35 1663 1370.81 1696.09C1377.89 1723.63 1472.74 1727.87 1532.43 1725.6C1616.7 1722.32 1702 1717.14 1761.07 1657.05Z" stroke="#78820A" stroke-opacity="0.75" stroke-width="5" stroke-miterlimit="10"/>
<path d="M1797.74 1710.18C1846.42 1658.99 1864.48 1576.16 1896.33 1415.65C1928.68 1253.48 1930.18 1144.32 1918.27 1141.6C1907.36 1139.07 1870.15 1180.81 1838.67 1210.5C1779.18 1266.97 1670.59 1256.59 1650.19 1259.31C1548.19 1272.93 1524.69 1311 1486.35 1382.05C1471.05 1410.39 1426.18 1482.18 1405.45 1567.05C1373.5 1697.66 1218.99 1729.62 1229.79 1776.61C1238.81 1815.7 1378.94 1820.43 1466.12 1815.25C1588.55 1808.35 1712.61 1799.69 1797.74 1710.18Z" stroke="#78820A" stroke-opacity="0.75" stroke-width="5" stroke-miterlimit="10"/>
<path d="M1834.29 1763.27C1896.73 1696.44 1919.06 1590.41 1961.58 1380.95C2004.79 1168.73 2007.95 1027.31 1994.7 1024.68C1980.82 1021.91 1932.14 1077.52 1891.12 1117.11C1813.3 1192.42 1670.15 1177.93 1644.58 1181.04C1510.03 1197.37 1479.99 1247.92 1430.39 1341.49C1410.93 1377.92 1352.02 1472.19 1324.6 1583.67C1282.25 1755.65 1075.51 1796.21 1088.69 1857.1C1099.63 1907.7 1285.03 1912.74 1399.72 1904.88C1560.26 1894.05 1723.15 1882.24 1834.29 1763.27Z" stroke="#78820A" stroke-opacity="0.75" stroke-width="5" stroke-miterlimit="10"/>
<path d="M1638.92 1102.75C1471.84 1121.72 1435.51 1184.96 1374.38 1300.91C1350.87 1345.49 1277.81 1462.18 1243.68 1600.26C1190.98 1813.62 931.992 1862.77 947.512 1937.55C960.412 1999.75 1191.07 2005.02 1333.27 1994.48C1531.97 1979.72 1733.67 1964.77 1870.8 1816.34C1946.99 1733.86 1973.6 1604.65 2026.79 1346.23C2080.78 1083.94 2085.6 910.3 2071.06 907.743C2054.19 904.792 1994.12 974.155 1943.53 1023.7C1847.36 1117.84 1669.66 1099.26 1638.92 1102.75Z" stroke="#78820A" stroke-opacity="0.75" stroke-width="5" stroke-miterlimit="10"/>
<path d="M280.344 595.746C299.315 668.476 435.49 634.314 597.592 798.126C655.677 856.828 694.622 918.226 771.499 927.774C779.254 928.732 856.272 937.152 910.625 887.72C979.006 825.534 937.268 739.256 1017.08 618.936C1046.47 574.613 1051.36 587.483 1072.93 552.53C1165.02 403.329 1024.58 251.861 1105.61 100.341C1142.91 30.5945 1198.36 14.5835 1193.09 5.47644C1170.35 -33.5973 229.078 399.766 280.344 595.746Z" stroke="#78820A" stroke-opacity="0.75" stroke-width="5" stroke-miterlimit="10"/>
<path d="M792.579 828.346C797.237 827.712 848.021 831.505 882.853 796.557C926.901 752.421 895.499 691.655 945.967 609.618C964.538 579.409 967.118 587.599 980.335 563.704C1036.72 461.734 935.522 359.154 985.078 259.334C1008.01 213.125 1044.21 202.532 1038.83 198.02C1014.47 177.445 393.183 481.402 441.983 613.665C460.279 663.27 560.165 645.667 674.459 752.506C716.018 791.328 744.159 834.912 792.579 828.346Z" stroke="#78820A" stroke-opacity="0.75" stroke-width="5" stroke-miterlimit="10"/>
<path d="M813.661 728.905C814.989 725.564 839.818 725.637 855.082 705.389C874.897 679.122 853.792 644.128 874.85 600.311C882.575 584.226 882.892 587.662 887.743 574.876C908.562 519.886 846.376 466.509 864.553 418.318C873.058 395.634 888.871 391.766 884.653 390.554C853.838 394.928 557.92 563.334 603.568 631.584C621.391 658.252 685.189 656.977 751.273 706.886C776.388 725.859 792.834 739.752 813.661 728.905Z" stroke="#78820A" stroke-opacity="0.75" stroke-width="5" stroke-miterlimit="10"/>
<path d="M834.734 629.477C818.381 581.675 753.982 565.422 730.394 583.098C695.612 609.196 725.282 643.179 765.175 649.504C794.989 654.194 853.46 684.182 834.734 629.477Z" stroke="#78820A" stroke-opacity="0.75" stroke-width="5" stroke-miterlimit="10"/>
</g>
</svg>
